<svg width="27" height="27" viewBox="0 0 27 27" fill="none" xmlns="http://www.w3.org/2000/svg">
<path fill-rule="evenodd" clip-rule="evenodd" d="M2.51163 19.4616C2.71758 19.4226 2.92981 19.4024 3.14456 19.4024H10.0465V11.8539H2.51163V19.4616ZM27 8.39544V6.72974C26.9998 6.28991 26.8681 5.86022 26.6219 5.49606C26.3757 5.13191 26.0262 4.84997 25.6186 4.68661L14.3163 0.157503C13.7923 -0.0525009 13.2077 -0.0525009 12.6837 0.157503L1.3814 4.68661C0.973767 4.84997 0.624324 5.13191 0.378111 5.49606C0.131899 5.86022 0.000202648 6.28991 0 6.72974V8.39544C0.000332938 8.97914 0.23202 9.53881 0.644128 9.95143C1.05624 10.364 1.61503 10.5958 2.19767 10.5958H24.8023C25.385 10.5958 25.9438 10.364 26.3559 9.95143C26.768 9.53881 26.9997 8.97914 27 8.39544ZM13.5 4.57212C13.8331 4.57212 14.1525 4.70467 14.388 4.94061C14.6235 5.17654 14.7558 5.49654 14.7558 5.83021C14.7558 6.16387 14.6235 6.48387 14.388 6.71981C14.1525 6.95575 13.8331 7.08829 13.5 7.08829C13.1669 7.08829 12.8475 6.95575 12.612 6.71981C12.3765 6.48387 12.2442 6.16387 12.2442 5.83021C12.2442 5.49654 12.3765 5.17654 12.612 4.94061C12.8475 4.70467 13.1669 4.57212 13.5 4.57212Z" fill="white"/>
<path d="M21.085 19.9547C23.131 19.9547 24.7897 18.2931 24.7897 16.2433C24.7897 14.1936 23.131 12.532 21.085 12.532C19.039 12.532 17.3804 14.1936 17.3804 16.2433C17.3804 18.2931 19.039 19.9547 21.085 19.9547Z" fill="white"/>
<path fill-rule="evenodd" clip-rule="evenodd" d="M14.7318 20.6606H3.14443C2.16363 20.6606 1.30089 21.3123 1.03215 22.2584L0.264844 24.9469C0.198186 25.1809 0.186653 25.4272 0.231152 25.6665C0.275651 25.9057 0.374968 26.1314 0.521286 26.3256C0.667605 26.5199 0.856932 26.6775 1.07437 26.786C1.2918 26.8945 1.53141 26.951 1.77433 26.951H15.5983C14.4618 26.1836 13.913 25.1268 13.913 23.9945C13.913 22.7918 14.2094 21.657 14.7318 20.6606ZM18.7567 11.854H16.9534V13.4933C17.4106 12.8065 18.0301 12.2434 18.7567 11.854Z" fill="white"/>
<path fill-rule="evenodd" clip-rule="evenodd" d="M24.8764 19.4465C24.4114 20.0004 23.8311 20.4455 23.1761 20.7506C22.5212 21.0558 21.8074 21.2136 21.0851 21.2129C20.3625 21.2137 19.6486 21.0559 18.9934 20.7508C18.3382 20.4456 17.7577 20.0004 17.2925 19.4465C16.6275 20.0024 16.0925 20.6978 15.7255 21.4838C15.3586 22.2697 15.1686 23.1268 15.1689 23.9945C15.1689 24.8638 15.7064 25.63 16.7123 26.1521C17.7735 26.7019 19.4274 27.0001 21.0851 27.0001C22.7428 27.0001 24.3954 26.7019 25.4566 26.1521C26.4637 25.63 27 24.8638 27 23.9945C27 22.169 26.1736 20.5348 24.8764 19.4465Z" fill="white"/>
</svg>
