<svg width="27" height="27" viewBox="0 0 27 27" fill="none" xmlns="http://www.w3.org/2000/svg">
<path fill-rule="evenodd" clip-rule="evenodd" d="M2.51163 19.4616C2.71758 19.4226 2.92981 19.4024 3.14456 19.4024H10.0465V11.8539H2.51163V19.4616ZM27 8.39544V6.72974C26.9998 6.28991 26.8681 5.86022 26.6219 5.49606C26.3757 5.13191 26.0262 4.84997 25.6186 4.68661L14.3163 0.157503C13.7923 -0.0525009 13.2077 -0.0525009 12.6837 0.157503L1.3814 4.68661C0.973767 4.84997 0.624324 5.13191 0.378111 5.49606C0.131899 5.86022 0.000202648 6.28991 0 6.72974V8.39544C0.000332938 8.97914 0.23202 9.53881 0.644128 9.95143C1.05624 10.364 1.61503 10.5958 2.19767 10.5958H24.8023C25.385 10.5958 25.9438 10.364 26.3559 9.95143C26.768 9.53881 26.9997 8.97914 27 8.39544ZM13.5 4.57212C13.8331 4.57212 14.1525 4.70467 14.388 4.94061C14.6235 5.17654 14.7558 5.49654 14.7558 5.83021C14.7558 6.16387 14.6235 6.48387 14.388 6.71981C14.1525 6.95575 13.8331 7.08829 13.5 7.08829C13.1669 7.08829 12.8475 6.95575 12.612 6.71981C12.3765 6.48387 12.2442 6.16387 12.2442 5.83021C12.2442 5.49654 12.3765 5.17654 12.612 4.94061C12.8475 4.70467 13.1669 4.57212 13.5 4.57212Z" fill="white"/>
<path d="M21.085 19.9547C23.131 19.9547 24.7897 18.2931 24.7897 16.2434C24.7897 14.1936 23.131 12.532 21.085 12.532C19.039 12.532 17.3804 14.1936 17.3804 16.2434C17.3804 18.2931 19.039 19.9547 21.085 19.9547Z" fill="white"/>
<path fill-rule="evenodd" clip-rule="evenodd" d="M14.7319 20.6605H3.14455C2.16376 20.6605 1.30101 21.3122 1.03227 22.2583L0.264966 24.9468C0.198308 25.1809 0.186775 25.4272 0.231274 25.6664C0.275773 25.9057 0.37509 26.1313 0.521408 26.3256C0.667727 26.5198 0.857054 26.6774 1.07449 26.786C1.29192 26.8945 1.53153 26.951 1.77445 26.951H15.5985C14.4619 26.1835 13.9132 25.1267 13.9132 23.9945C13.9132 22.7917 14.2095 21.6569 14.7319 20.6605ZM18.7568 11.8539H16.9535V13.4932C17.4107 12.8064 18.0302 12.2433 18.7568 11.8539Z" fill="white"/>
<path fill-rule="evenodd" clip-rule="evenodd" d="M24.8764 19.4465C24.4114 20.0003 23.8311 20.4454 23.1761 20.7506C22.5212 21.0557 21.8074 21.2135 21.0851 21.2128C20.3625 21.2136 19.6486 21.0559 18.9934 20.7507C18.3382 20.4456 17.7577 20.0004 17.2925 19.4465C16.6275 20.0023 16.0925 20.6978 15.7255 21.4837C15.3586 22.2696 15.1686 23.1268 15.1689 23.9944C15.1689 24.8638 15.7064 25.63 16.7123 26.1521C17.7735 26.7018 19.4274 27 21.0851 27C22.7428 27 24.3954 26.7018 25.4566 26.1521C26.4637 25.63 27 24.8638 27 23.9944C27 22.169 26.1736 20.5347 24.8764 19.4465Z" fill="white"/>
</svg>
