<svg width="27" height="27" viewBox="0 0 27 27" fill="none" xmlns="http://www.w3.org/2000/svg">
<path d="M20.1758 16.673H26.6125V11.4985H20.1758V16.673ZM23.0957 13.0927C23.5648 13.0927 23.9451 13.5376 23.9451 14.0849C23.9451 14.6339 23.5648 15.0777 23.0957 15.0777C22.6266 15.0777 22.2463 14.6339 22.2463 14.0849C22.2469 13.5376 22.6266 13.0927 23.0957 13.0927Z" fill="white"/>
<path d="M19.6982 10.5434H26.6125V6.70935C26.6125 5.77841 25.9566 5.02073 25.15 5.02073H23.715L23.1306 1.75485C23.0119 1.08829 22.6581 0.534226 22.1614 0.231601C21.9759 0.115639 21.7676 0.0409953 21.5507 0.0127496C21.3337 -0.0154961 21.1132 0.00331869 20.9042 0.0679139L5.17841 4.94141C4.76722 5.06798 4.40328 5.37116 4.15466 5.7936L4.16703 5.80148C4.01341 6.07938 3.93308 6.39182 3.9336 6.70935V14.6299C4.58608 14.4399 5.26215 14.3432 5.94172 14.3425C9.84041 14.3425 13.0118 17.434 13.0118 21.2342C13.0118 21.8432 12.9289 22.4493 12.7654 23.0359H25.1494C25.956 23.0359 26.6119 22.2777 26.6119 21.3473V17.628H19.6982C19.5716 17.628 19.4501 17.5777 19.3605 17.4882C19.271 17.3986 19.2207 17.2771 19.2207 17.1505V11.0209C19.2208 10.8943 19.2712 10.7729 19.3607 10.6834C19.4502 10.5939 19.5716 10.5435 19.6982 10.5434ZM8.14897 5.02073L21.1877 0.979726C21.348 0.930227 21.5095 0.952726 21.667 1.04779C21.9252 1.20529 22.122 1.5321 22.1918 1.9236L22.7464 5.02073H8.14897Z" fill="white"/>
<path d="M5.94281 15.4692C2.66569 15.4692 0 18.0556 0 21.2343C0 24.413 2.66512 26.9994 5.94281 26.9994C8.40319 26.9994 10.6386 25.5003 11.5059 23.2683C11.7583 22.6199 11.8873 21.9301 11.8862 21.2343C11.8862 18.0556 9.21994 15.4692 5.94281 15.4692ZM8.23275 21.7979H6.50588V23.5248C6.50588 23.6741 6.44655 23.8174 6.34096 23.9229C6.23536 24.0285 6.09215 24.0879 5.94281 24.0879C5.79348 24.0879 5.65026 24.0285 5.54467 23.9229C5.43907 23.8174 5.37975 23.6741 5.37975 23.5248V21.7979H3.65288C3.50347 21.7979 3.36018 21.7386 3.25453 21.6329C3.14888 21.5273 3.08953 21.384 3.08953 21.2346C3.08953 21.0852 3.14888 20.9419 3.25453 20.8362C3.36018 20.7306 3.50347 20.6712 3.65288 20.6712H5.37975V18.9444C5.37975 18.795 5.43907 18.6518 5.54467 18.5462C5.65026 18.4406 5.79348 18.3813 5.94281 18.3813C6.09215 18.3813 6.23536 18.4406 6.34096 18.5462C6.44655 18.6518 6.50588 18.795 6.50588 18.9444V20.6712H8.23275C8.38216 20.6712 8.52545 20.7306 8.63109 20.8362C8.73674 20.9419 8.79609 21.0852 8.79609 21.2346C8.79609 21.384 8.73674 21.5273 8.63109 21.6329C8.52545 21.7386 8.38216 21.7979 8.23275 21.7979Z" fill="white"/>
</svg>
