<svg width="27" height="27" viewBox="0 0 27 27" fill="none" xmlns="http://www.w3.org/2000/svg">
<g clip-path="url(#clip0_20_14)">
<path d="M15.6328 13.2943C15.137 11.8233 13.5426 11.0328 12.0717 11.5287C10.693 11.9934 9.89688 13.4333 10.2364 14.848C11.2482 18.3658 14.9493 21.5227 18.3389 24.2052C18.5823 24.3979 18.9359 24.3569 19.1287 24.1135C19.3215 23.8701 19.2805 23.5165 19.037 23.3237C15.7834 20.7492 12.2365 17.735 11.3168 14.5377C11.0594 13.642 11.5769 12.7073 12.4726 12.4499C13.3682 12.1926 14.3029 12.71 14.5603 13.6057C15.1741 15.7418 18.2265 18.3815 21.1304 20.6795C21.3738 20.8722 21.7274 20.8312 21.9202 20.5878C22.113 20.3444 22.072 19.9908 21.8286 19.798C20.2951 18.5872 16.2343 15.3741 15.6328 13.2943Z" fill="#FFC107"/>
<path d="M19.8937 11.8451C18.6716 8.0982 14.7122 5.98164 10.9177 7.04679C7.03838 8.15991 4.79592 12.2072 5.90909 16.0865L5.91146 16.0948C6.83449 19.3012 4.85579 20.1904 4.22509 20.386C3.92892 20.4792 3.76434 20.7948 3.85746 21.0909C3.95058 21.3871 4.26619 21.5517 4.56236 21.4586C6.28136 20.9212 7.95087 19.1134 6.99185 15.7833C6.04643 12.5018 7.94023 9.07524 11.2217 8.12982L11.2269 8.12834C14.4715 7.21633 17.852 9.05516 18.8493 12.2746C18.8626 12.3184 18.8815 12.3604 18.9055 12.3994C18.964 12.4961 19.0843 12.6995 22.6976 15.6316C22.9385 15.8274 23.2926 15.791 23.4885 15.55C23.6844 15.3091 23.6479 14.955 23.407 14.7591C22.0939 13.6934 20.1748 12.1093 19.8937 11.8451Z" fill="#FFC107"/>
<path d="M17.7959 12.6725C17.0195 9.99147 14.2213 8.44284 11.5372 9.20872C8.90166 10.0224 7.37196 12.7649 8.06438 15.4348C9.19989 20.6064 8.35106 21.8003 6.02159 22.5288C5.72542 22.622 5.56084 22.9376 5.65396 23.2337C5.74708 23.5299 6.0627 23.6945 6.35887 23.6014C9.61358 22.5895 10.3207 20.4624 9.16948 15.1931C8.61018 13.1037 9.79265 10.9437 11.8542 10.2891C13.9431 9.69609 16.1187 10.9017 16.7233 12.9873C16.9482 13.754 17.5452 14.8063 22.149 18.4501C22.3924 18.6428 22.746 18.6018 22.9388 18.3584C23.1316 18.115 23.0906 17.7614 22.8472 17.5686C18.6683 14.2634 17.9533 13.2167 17.7959 12.6725Z" fill="#FFC107"/>
<path d="M19.3428 20.4973C17.4405 19.0538 14.2567 16.6389 13.4731 13.916C13.3822 13.6191 13.0679 13.4521 12.771 13.543C12.6317 13.5857 12.5144 13.6808 12.4438 13.8082C12.3732 13.9357 12.3549 14.0856 12.3926 14.2263C13.2786 17.309 16.6491 19.8655 18.6626 21.3934C19.0718 21.688 19.4658 22.0032 19.8431 22.3378C20.0663 22.5535 20.4222 22.5473 20.6379 22.324C20.8483 22.1061 20.8483 21.7607 20.6379 21.5429C20.2262 21.1703 19.7938 20.8212 19.3428 20.4973ZM16.3006 24.4075C16.0206 23.8882 15.6196 23.4439 15.1315 23.1124C14.6435 22.7809 14.0827 22.5718 13.4967 22.503C11.5854 22.503 11.2898 25.7521 11.2482 26.403C11.2289 26.7128 11.4645 26.9796 11.7743 26.9989H11.8103C11.9535 26.9992 12.0915 26.9448 12.196 26.8468C12.3004 26.7488 12.3636 26.6146 12.3725 26.4716C12.4433 25.3137 12.8862 23.6273 13.4967 23.6273C14.3298 23.6273 14.9211 24.43 15.3955 25.0742C15.5523 25.2977 15.7239 25.5103 15.9093 25.7106C16.1326 25.9263 16.4885 25.92 16.7042 25.6968C16.8054 25.592 16.862 25.4519 16.862 25.3062C16.862 25.1605 16.8054 25.0205 16.7042 24.9157C16.5588 24.7552 16.4239 24.5855 16.3006 24.4075ZM11.2223 19.5215C11.1167 19.2296 10.7944 19.0786 10.5025 19.1843C10.37 19.2322 10.2604 19.3281 10.1953 19.4531C10.1302 19.578 10.1144 19.7228 10.151 19.8588C10.6322 21.3619 9.68664 24.3119 8.26449 24.774C7.96822 24.8667 7.80322 25.1821 7.89591 25.4784C7.98867 25.7746 8.30402 25.9396 8.60029 25.8469C8.60419 25.8457 8.60804 25.8445 8.61189 25.8432C10.7749 25.1462 11.8182 21.3889 11.2223 19.5215Z" fill="#FFC107"/>
<path d="M23.226 11.8496C22.5234 11.6247 21.9714 10.7254 21.3316 9.69888C19.9781 7.51107 18.1219 4.51495 12.9346 4.51495C7.65944 4.52117 3.38464 8.79598 3.37847 14.0711C3.37847 14.3816 3.63016 14.6333 3.94061 14.6333C4.25107 14.6333 4.50276 14.3816 4.50276 14.0711C4.50771 9.41635 8.27987 5.64419 12.9346 5.63924C17.4957 5.63924 19.0933 8.21829 20.3772 10.2914C21.1327 11.5112 21.7847 12.5646 22.8798 12.9199C23.174 13.019 23.4928 12.8608 23.592 12.5667C23.6911 12.2724 23.5329 11.9536 23.2388 11.8545C23.2349 11.8532 23.2311 11.852 23.2272 11.8507L23.226 11.8496ZM4.5027 18.5681C4.81316 18.5681 5.06485 18.3164 5.06479 18.006C5.06479 17.9185 5.0444 17.8323 5.00524 17.7542C4.76534 17.3045 4.59585 16.8207 4.5027 16.3196C4.5027 16.0092 4.25101 15.7575 3.94056 15.7575C3.63011 15.7575 3.37842 16.0092 3.37842 16.3196C3.46866 16.9976 3.6792 17.6539 4.00011 18.2579C4.04687 18.3511 4.11864 18.4295 4.2074 18.4843C4.29616 18.5391 4.3984 18.5681 4.5027 18.5681Z" fill="#FFC107"/>
<path d="M4.21044 6.68143C4.47552 6.84301 4.82144 6.75916 4.98302 6.49408L4.98391 6.49256C5.47185 5.68757 7.87547 3.39073 12.3725 3.39073C16.6941 3.39073 19.769 5.57965 20.3232 6.49256C20.4843 6.758 20.8301 6.84253 21.0956 6.68143C21.361 6.52033 21.4455 6.17452 21.2844 5.90907C20.5132 4.63865 17.1079 2.26649 12.3725 2.26649C7.33699 2.26649 4.63768 4.89614 4.02157 5.91018C3.8611 6.17536 3.94563 6.52038 4.21044 6.68143Z" fill="#FFC107"/>
<path d="M7.53819 2.217C7.79562 2.10459 8.01375 1.99213 8.22059 1.87973C9.06604 1.45365 9.67425 1.1422 12.3724 1.1422C14.1943 1.0418 16.0165 1.33356 17.716 1.99777C17.9307 2.07761 18.1466 2.1574 18.3726 2.23497C18.4315 2.25542 18.4934 2.26606 18.5558 2.26643C18.8663 2.26701 19.1184 2.0158 19.119 1.70534C19.1192 1.58799 19.0826 1.47352 19.0145 1.37797C18.9464 1.28243 18.8501 1.2106 18.739 1.17255C18.5209 1.09725 18.3141 1.02078 18.1072 0.947687C16.2828 0.236184 14.3283 -0.0806812 12.3725 0.0179664C9.4 0.0179664 8.65573 0.400194 7.71136 0.884764C7.52138 0.982574 7.31901 1.08602 7.08292 1.19168C6.79444 1.30636 6.65352 1.6332 6.76814 1.92167C6.88282 2.21015 7.20966 2.35107 7.49814 2.23645C7.51289 2.2306 7.52738 2.22412 7.54156 2.217H7.53819ZM22.5166 9.74499C22.6222 10.0369 22.9446 10.1879 23.2365 10.0822C23.3689 10.0343 23.4785 9.93834 23.5436 9.81343C23.6087 9.68853 23.6245 9.54373 23.588 9.40771C23.269 8.58185 22.8734 7.78766 22.4064 7.03556C22.2437 6.77106 21.8974 6.68848 21.6329 6.85116C21.3684 7.01385 21.2858 7.36013 21.4485 7.62463C21.867 8.29819 22.2244 9.0078 22.5166 9.74499Z" fill="#FFC107"/>
<path d="M18.6841 24.3266C18.5575 24.3265 18.4348 24.2837 18.3356 24.2051C14.9459 21.5215 11.2483 18.3658 10.2365 14.848C9.87417 13.3386 10.8041 11.8213 12.3135 11.459C13.7282 11.1195 15.1682 11.9156 15.6329 13.2943C16.231 15.373 20.2918 18.5872 21.8162 19.797C22.0656 19.982 22.1177 20.3341 21.9327 20.5833C21.7476 20.8326 21.3955 20.8848 21.1463 20.6997C21.137 20.6929 21.128 20.6857 21.1192 20.6783C18.2153 18.3804 15.1606 15.7417 14.548 13.6046C14.2906 12.7092 13.3561 12.192 12.4608 12.4494C11.5654 12.7068 11.0483 13.6413 11.3056 14.5366C12.2253 17.7339 15.7723 20.7481 19.0248 23.3226C19.2682 23.5153 19.3092 23.8689 19.1165 24.1122C19.0638 24.1788 18.9967 24.2325 18.9203 24.2695C18.8438 24.3064 18.76 24.3255 18.6751 24.3254L18.6841 24.3266Z" fill="white"/>
<path d="M4.39031 21.4811C4.07986 21.4805 3.82864 21.2284 3.82922 20.9179C3.82944 20.7985 3.86771 20.6822 3.93849 20.5859C4.00926 20.4897 4.10886 20.4185 4.22284 20.3827C4.85127 20.1859 6.82997 19.2966 5.90921 16.0914C4.79357 12.2128 7.03339 8.16412 10.912 7.04847L10.9178 7.04684C14.7126 5.98095 18.6728 8.09766 19.8949 11.8452C20.1749 12.1082 22.094 13.6934 23.4071 14.7592C23.5176 14.8548 23.5865 14.9896 23.5994 15.1351C23.6122 15.2806 23.5679 15.4254 23.4758 15.5388C23.3837 15.6522 23.2512 15.7253 23.1061 15.7426C22.9611 15.76 22.815 15.7202 22.6988 15.6317C19.0843 12.6985 18.964 12.495 18.9055 12.3983C18.8823 12.3594 18.8638 12.3179 18.8505 12.2746C17.8532 9.05463 14.4719 7.21564 11.2269 8.12839C7.94472 9.07144 6.0485 12.4967 6.99155 15.7788L6.99187 15.78C7.94973 19.1089 6.28132 20.9178 4.56122 21.4552C4.50594 21.4727 4.44828 21.4814 4.39031 21.4811Z" fill="white"/>
<path d="M6.18914 23.6272C5.87869 23.6267 5.62747 23.3746 5.62805 23.0641C5.62827 22.9446 5.66654 22.8283 5.73732 22.7321C5.80809 22.6359 5.90769 22.5647 6.02166 22.5288C8.35113 21.8003 9.1988 20.6041 8.06329 15.4348C7.37145 12.7649 8.90094 10.0229 11.5361 9.20873C14.2203 8.4448 17.0174 9.99258 17.7959 12.6725C17.9522 13.2156 18.6661 14.2622 22.8382 17.5653C23.0875 17.7503 23.1397 18.1024 22.9546 18.3517C22.7696 18.601 22.4175 18.6531 22.1682 18.4681C22.159 18.4612 22.15 18.4541 22.1412 18.4467C17.5317 14.8019 16.9347 13.7485 16.7155 12.9839C16.113 10.8961 13.9348 9.68934 11.8453 10.2857C9.78139 10.9409 8.59882 13.1044 9.16164 15.1954C10.3185 20.4659 9.61133 22.5873 6.35103 23.6036C6.29855 23.6195 6.244 23.6275 6.18914 23.6272Z" fill="white"/>
<path d="M20.2422 22.503C20.1684 22.5032 20.0952 22.4887 20.0269 22.4606C19.9586 22.4324 19.8965 22.391 19.8442 22.3389C19.4669 22.0041 19.0729 21.6885 18.6638 21.3934C16.6502 19.8655 13.2798 17.309 12.3938 14.2263C12.303 13.9294 12.4699 13.6151 12.7668 13.5242C13.0636 13.4334 13.3779 13.6003 13.4688 13.8972C13.4707 13.9034 13.4725 13.9097 13.4742 13.9159C14.2612 16.6388 17.4406 19.0537 19.3428 20.4973C19.7941 20.8217 20.2269 21.1711 20.6391 21.5439C20.8582 21.7638 20.8577 22.1197 20.6378 22.3389C20.5328 22.4437 20.3906 22.5027 20.2422 22.503ZM11.8103 27H11.7743C11.4645 26.9807 11.229 26.7139 11.2482 26.4041C11.2887 25.7532 11.5855 22.5041 13.4967 22.5041C14.0839 22.5724 14.646 22.7812 15.1352 23.113C15.6245 23.4447 16.0266 23.8895 16.3073 24.4097C16.43 24.5879 16.5644 24.7577 16.7098 24.9179C16.9255 25.1412 16.9193 25.4971 16.696 25.7128C16.5912 25.814 16.4512 25.8706 16.3055 25.8706C16.1597 25.8706 16.0197 25.814 15.9149 25.7128C15.7292 25.5132 15.5575 25.3009 15.4012 25.0776C14.9222 24.43 14.3309 23.6273 13.4967 23.6273C12.8873 23.6273 12.4433 25.3137 12.3724 26.4728C12.3636 26.6157 12.3004 26.7499 12.196 26.8479C12.0915 26.9459 11.9536 27.0003 11.8103 27ZM8.43759 25.8758C8.12714 25.8763 7.87497 25.6252 7.87439 25.3147C7.87416 25.1955 7.91182 25.0794 7.98194 24.983C8.05206 24.8866 8.151 24.815 8.26447 24.7785C9.68551 24.3164 10.6254 21.3664 10.1509 19.8633C10.0398 19.5734 10.1847 19.2484 10.4746 19.1372C10.7644 19.0261 11.0895 19.171 11.2007 19.4608C11.2088 19.4821 11.2157 19.5039 11.2212 19.526C11.8182 21.3934 10.7715 25.1473 8.61071 25.8533C8.55452 25.8698 8.49611 25.8773 8.43759 25.8758Z" fill="white"/>
<path d="M3.94056 14.6333C3.63011 14.6333 3.37842 14.3816 3.37842 14.0711C3.38464 8.79599 7.65939 4.52118 12.9345 4.51501C18.1218 4.51501 19.978 7.51113 21.3327 9.69894C21.9724 10.7299 22.5244 11.6214 23.2271 11.8496C23.5233 11.9424 23.6884 12.2578 23.5957 12.554C23.503 12.8503 23.1875 13.0153 22.8913 12.9226C22.8874 12.9214 22.8835 12.9201 22.8797 12.9188C21.7846 12.5636 21.1326 11.5101 20.3771 10.2903C19.0932 8.21835 17.4957 5.6393 12.9345 5.6393C8.27977 5.64425 4.50761 9.41642 4.50265 14.0712C4.50265 14.3816 4.25101 14.6333 3.94056 14.6333ZM4.50265 18.5681C4.39816 18.5683 4.29567 18.5394 4.20671 18.4846C4.11774 18.4298 4.04581 18.3513 3.999 18.2578C3.67822 17.6539 3.46805 16.9975 3.37842 16.3196C3.37842 16.0091 3.63011 15.7575 3.94056 15.7575C4.25101 15.7575 4.5027 16.0091 4.5027 16.3196C4.59609 16.8206 4.76556 17.3044 5.00524 17.7541C5.14432 18.0317 5.03207 18.3694 4.7545 18.5085C4.67633 18.5477 4.5901 18.5681 4.50265 18.5681Z" fill="white"/>
<path d="M20.8044 6.76348C20.7077 6.76354 20.6125 6.73863 20.5283 6.69117C20.444 6.6437 20.3733 6.5753 20.3232 6.49256C19.7701 5.57965 16.6941 3.39073 12.3725 3.39073C7.87553 3.39073 5.47186 5.68757 4.98282 6.49256C4.83136 6.76354 4.48887 6.86045 4.21789 6.70894C3.94691 6.55748 3.84999 6.21499 4.0015 5.94401C4.00814 5.9321 4.01526 5.92045 4.02274 5.90907C4.63769 4.89614 7.33705 2.26649 12.3726 2.26649C17.1079 2.26649 20.5133 4.63865 21.2845 5.91018C21.4453 6.17573 21.3604 6.52138 21.0948 6.68217C21.0072 6.73524 20.9068 6.76336 20.8044 6.76348Z" fill="white"/>
<path d="M18.5559 2.26649C18.4935 2.26661 18.4316 2.25635 18.3726 2.23613C18.1478 2.15856 17.9297 2.07762 17.7149 1.99894C16.0159 1.33459 14.1941 1.04246 12.3725 1.14226C9.67429 1.14226 9.06609 1.45366 8.22627 1.88426C8.01943 1.99108 7.8002 2.10238 7.54387 2.22154C7.2595 2.34728 6.92702 2.21869 6.80128 1.93427C6.67554 1.64991 6.80413 1.31743 7.08855 1.19169C7.32575 1.08487 7.527 0.98147 7.71814 0.88366C8.65577 0.40025 9.40115 0.0179694 12.3725 0.0179694C14.3278 -0.0817411 16.2819 0.233994 18.1062 0.94437C18.3131 1.02084 18.52 1.09841 18.738 1.16924C19.0336 1.2641 19.1964 1.58066 19.1015 1.87625C19.0646 1.99129 18.9915 2.09136 18.8932 2.16165C18.795 2.23194 18.6767 2.2687 18.5559 2.26649ZM23.0528 10.1362C22.9337 10.1362 22.8176 10.0982 22.7215 10.0279C22.6253 9.95757 22.5539 9.85851 22.5177 9.74499C22.2256 9.00633 21.8682 8.29523 21.4496 7.62016C21.2869 7.35566 21.3695 7.00937 21.634 6.84669C21.8985 6.68401 22.2448 6.76653 22.4075 7.03108C22.8741 7.78327 23.2693 8.57744 23.588 9.40324C23.6823 9.69899 23.5191 10.0153 23.2233 10.1096C23.1682 10.1272 23.1107 10.1362 23.0528 10.1362Z" fill="white"/>
</g>
<defs>
<clipPath id="clip0_20_14">
<rect width="27" height="27" fill="white"/>
</clipPath>
</defs>
</svg>
