<svg width="27" height="27" viewBox="0 0 27 27" fill="none" xmlns="http://www.w3.org/2000/svg">
<path d="M20.25 2.25H6.75001C5.8549 2.25 4.99646 2.60558 4.36352 3.23851C3.73058 3.87145 3.37501 4.72989 3.37501 5.625V22.275C3.37418 22.6553 3.46976 23.0296 3.65281 23.3629C3.83586 23.6963 4.10042 23.9778 4.42177 24.1811C4.74311 24.3845 5.11076 24.5031 5.49037 24.5259C5.86998 24.5486 6.24917 24.4748 6.59251 24.3113C6.86251 24.1763 7.09876 24.03 7.34626 23.8837C7.82226 23.5264 8.40495 23.3401 9.00001 23.355C9.59851 23.3401 10.1847 23.5263 10.665 23.8837C11.4957 24.4628 12.4875 24.7658 13.5 24.75C14.5126 24.7666 15.5046 24.4635 16.335 23.8837C16.8149 23.5255 17.4014 23.3393 18 23.355C18.5953 23.3383 19.1786 23.5248 19.6538 23.8837C19.8974 24.0358 20.149 24.1747 20.4075 24.3C20.75 24.4631 21.1281 24.537 21.5068 24.5148C21.8855 24.4925 22.2524 24.3749 22.5735 24.1729C22.8945 23.9708 23.1593 23.6909 23.3431 23.3591C23.527 23.0272 23.6239 22.6543 23.625 22.275V5.625C23.625 4.72989 23.2694 3.87145 22.6365 3.23851C22.0036 2.60558 21.1451 2.25 20.25 2.25ZM13.5 18H9.00001C8.70164 18 8.41549 17.8815 8.20451 17.6705C7.99353 17.4595 7.87501 17.1734 7.87501 16.875C7.87501 16.5766 7.99353 16.2905 8.20451 16.0795C8.41549 15.8685 8.70164 15.75 9.00001 15.75H13.5C13.7984 15.75 14.0845 15.8685 14.2955 16.0795C14.5065 16.2905 14.625 16.5766 14.625 16.875C14.625 17.1734 14.5065 17.4595 14.2955 17.6705C14.0845 17.8815 13.7984 18 13.5 18ZM18 13.5H9.00001C8.70164 13.5 8.41549 13.3815 8.20451 13.1705C7.99353 12.9595 7.87501 12.6734 7.87501 12.375C7.87501 12.0766 7.99353 11.7905 8.20451 11.5795C8.41549 11.3685 8.70164 11.25 9.00001 11.25H18C18.2984 11.25 18.5845 11.3685 18.7955 11.5795C19.0065 11.7905 19.125 12.0766 19.125 12.375C19.125 12.6734 19.0065 12.9595 18.7955 13.1705C18.5845 13.3815 18.2984 13.5 18 13.5ZM18 9H9.00001C8.70164 9 8.41549 8.88147 8.20451 8.6705C7.99353 8.45952 7.87501 8.17337 7.87501 7.875C7.87501 7.57663 7.99353 7.29048 8.20451 7.0795C8.41549 6.86853 8.70164 6.75 9.00001 6.75H18C18.2984 6.75 18.5845 6.86853 18.7955 7.0795C19.0065 7.29048 19.125 7.57663 19.125 7.875C19.125 8.17337 19.0065 8.45952 18.7955 8.6705C18.5845 8.88147 18.2984 9 18 9Z" fill="white"/>
</svg>
