<svg width="63" height="39" viewBox="0 0 63 39" fill="none" xmlns="http://www.w3.org/2000/svg">
<path d="M19.2698 38.5395C29.9121 38.5395 38.5395 29.9121 38.5395 19.2698C38.5395 8.62736 29.9121 0 19.2698 0C8.62736 0 0 8.62736 0 19.2698C0 29.9121 8.62736 38.5395 19.2698 38.5395Z" fill="#FF6041"/>
<path d="M43.5422 38.5395C54.1846 38.5395 62.812 29.9121 62.812 19.2698C62.812 8.62736 54.1846 0 43.5422 0C32.8998 0 24.2725 8.62736 24.2725 19.2698C24.2725 29.9121 32.8998 38.5395 43.5422 38.5395Z" fill="#FFD941"/>
<path fill-rule="evenodd" clip-rule="evenodd" d="M31.4059 4.44686C33.6304 6.2445 35.4246 8.51693 36.6572 11.0977C37.8898 13.6785 38.5295 16.5024 38.5295 19.3624C38.5295 22.2224 37.8898 25.0462 36.6572 27.627C35.4246 30.2078 33.6304 32.4803 31.4059 34.2779C29.1648 32.4811 27.356 30.2037 26.1131 27.614C24.8701 25.0244 24.2249 22.1886 24.2249 19.3161C24.2249 16.4436 24.8701 13.6078 26.1131 11.0181C27.356 8.42844 29.1648 6.24372 31.4059 4.44686Z" fill="#FFD941"/>
<mask id="mask0_108_1714" style="mask-type:luminance" maskUnits="userSpaceOnUse" x="24" y="4" width="15" height="31">
<path d="M31.4059 4.44686C33.6304 6.2445 35.4246 8.51693 36.6572 11.0977C37.8898 13.6785 38.5295 16.5024 38.5295 19.3624C38.5295 22.2224 37.8898 25.0462 36.6572 27.627C35.4246 30.2078 33.6304 32.4803 31.4059 34.2779C29.1648 32.4811 27.356 30.2037 26.1131 27.614C24.8701 25.0244 24.2249 22.1886 24.2249 19.3161C24.2249 16.4436 24.8701 13.6078 26.1131 11.0181C27.356 8.42844 29.1648 6.24372 31.4059 4.44686Z" fill="white"/>
</mask>
<g mask="url(#mask0_108_1714)">
<path fill-rule="evenodd" clip-rule="evenodd" d="M20.752 8.15259H43.7274V10.6539H20.752V8.15259ZM20.752 13.0627H43.7274V15.564H20.752V13.0627ZM20.752 18.0654H43.7274V20.5668H20.752V18.0654ZM20.752 22.9755H43.7274V25.4768H20.752V22.9755ZM20.752 27.8856H43.7274V30.3869H20.752V27.8856Z" fill="#FF6041"/>
</g>
</svg>
