<svg width="27" height="27" viewBox="0 0 27 27" fill="none" xmlns="http://www.w3.org/2000/svg">
<path d="M8.1968 8.48651H8.24426C8.70586 8.48651 9.01682 8.42833 9.17713 8.31196C9.33744 8.1956 9.4176 8.02632 9.4176 7.80413C9.42202 7.68958 9.39867 7.57566 9.34955 7.47208C9.30042 7.3685 9.22697 7.27834 9.13547 7.20929C8.94703 7.06374 8.63414 6.99097 8.1968 6.99097C8.13563 6.99097 8.07696 7.01523 8.03366 7.05843C7.99036 7.10163 7.96596 7.16025 7.96582 7.22142V8.25554C7.96582 8.3168 7.99016 8.37555 8.03347 8.41886C8.07679 8.46218 8.13554 8.48651 8.1968 8.48651Z" fill="white"/>
<path d="M23.3761 0.624375C23.1614 0.82793 22.893 1.08211 22.3804 1.08211C21.8679 1.08211 21.6 0.82793 21.3848 0.624375C21.1992 0.445605 21.0605 0.316406 20.7652 0.316406C20.4699 0.316406 20.3344 0.445605 20.1445 0.624375C19.9288 0.82793 19.6615 1.08211 19.1484 1.08211C18.6353 1.08211 18.3684 0.82793 18.1527 0.624375C17.9666 0.445605 17.8305 0.316406 17.5357 0.316406C17.241 0.316406 17.1049 0.445605 16.9166 0.624375C16.7015 0.82793 16.4341 1.08211 15.921 1.08211C15.4079 1.08211 15.1405 0.82793 14.9238 0.624375C14.7371 0.445605 14.6011 0.316406 14.3063 0.316406C14.0115 0.316406 13.8754 0.445605 13.6872 0.624375C13.472 0.82793 13.2041 1.08211 12.6921 1.08211C12.18 1.08211 11.9116 0.82793 11.6965 0.624375C11.5082 0.445605 11.3721 0.316406 11.0774 0.316406C10.7826 0.316406 10.6465 0.445605 10.4577 0.624375C10.2431 0.82793 9.97521 1.08211 9.46264 1.08211C8.95006 1.08211 8.68217 0.82793 8.46701 0.624375C8.27928 0.445605 8.14217 0.316406 7.84738 0.316406C7.5526 0.316406 7.41707 0.445605 7.22881 0.624375C7.01365 0.82793 6.74576 1.08211 6.23318 1.08211C5.72061 1.08211 5.45272 0.82793 5.23809 0.624375C5.0493 0.445605 4.91324 0.316406 4.61846 0.316406C4.32367 0.316406 4.18762 0.445605 3.99936 0.624375C3.85486 0.761484 3.68295 0.921797 3.43457 1.01145V25.5946C3.43462 25.7571 3.47102 25.9175 3.54109 26.064C3.61117 26.2106 3.71314 26.3396 3.83955 26.4416C3.96596 26.5437 4.11359 26.6161 4.27163 26.6537C4.42968 26.6913 4.59413 26.693 4.75293 26.6588L22.7069 22.7812C22.95 22.7286 23.1678 22.5943 23.324 22.4007C23.4802 22.2071 23.5654 21.9658 23.5654 21.7171V0.457207C23.4991 0.509218 23.4359 0.565035 23.3761 0.624375ZM17.4171 4.29152C17.4171 4.13768 17.4782 3.99013 17.587 3.88135C17.6958 3.77256 17.8433 3.71145 17.9972 3.71145C18.137 3.71145 18.2712 3.767 18.3701 3.8659C18.469 3.9648 18.5245 4.09893 18.5245 4.23879V8.14113C18.5245 8.23176 18.5605 8.31868 18.6246 8.38276C18.6887 8.44685 18.7756 8.48285 18.8662 8.48285H19.6172C19.757 8.48285 19.8912 8.53841 19.9901 8.63731C20.089 8.7362 20.1445 8.87033 20.1445 9.0102C20.1445 9.15006 20.089 9.28419 19.9901 9.38308C19.8912 9.48198 19.757 9.53754 19.6172 9.53754H17.7572C17.6666 9.53754 17.5797 9.50154 17.5156 9.43745C17.4515 9.37337 17.4155 9.28645 17.4155 9.19582L17.4171 4.29152ZM13.8428 4.26568C13.8428 4.11841 13.9013 3.97717 14.0054 3.87303C14.1095 3.76889 14.2508 3.71039 14.398 3.71039C14.5453 3.71039 14.6866 3.76889 14.7907 3.87303C14.8948 3.97717 14.9533 4.11841 14.9533 4.26568V8.15854C14.9535 8.24549 14.9881 8.32883 15.0496 8.39032C15.111 8.4518 15.1944 8.4864 15.2813 8.48654H16.0423C16.1822 8.48654 16.3163 8.5421 16.4152 8.641C16.5141 8.73989 16.5696 8.87403 16.5696 9.01389C16.5696 9.15375 16.5141 9.28788 16.4152 9.38678C16.3163 9.48567 16.1822 9.54123 16.0423 9.54123H14.1692C14.1261 9.5413 14.0834 9.53286 14.0436 9.5164C14.0037 9.49994 13.9676 9.47579 13.9371 9.44531C13.9066 9.41484 13.8825 9.37865 13.866 9.33883C13.8495 9.299 13.8411 9.25632 13.8412 9.21322L13.8428 4.26568ZM11.4903 4.26146C11.4947 4.11819 11.5547 3.98227 11.6576 3.88249C11.7606 3.78272 11.8983 3.72692 12.0416 3.72692C12.185 3.72692 12.3227 3.78272 12.4256 3.88249C12.5285 3.98227 12.5885 4.11819 12.5929 4.26146V8.99438C12.5885 9.13765 12.5285 9.27357 12.4256 9.37335C12.3227 9.47312 12.185 9.52892 12.0416 9.52892C11.8983 9.52892 11.7606 9.47312 11.6576 9.37335C11.5547 9.27357 11.4947 9.13765 11.4903 8.99438V4.26146ZM6.85545 4.1734C6.85545 4.0506 6.90423 3.93283 6.99106 3.846C7.07789 3.75917 7.19566 3.71039 7.31846 3.71039H7.77303C8.30529 3.71039 8.69447 3.74555 8.94057 3.81586C9.26667 3.89409 9.55908 4.07486 9.77482 4.3316C9.98061 4.58143 10.0904 4.89656 10.0844 5.22018C10.0872 5.43041 10.0389 5.63818 9.94357 5.82557C9.83093 6.02757 9.67431 6.20167 9.48531 6.33498C9.83969 6.50162 10.099 6.70992 10.2631 6.95988C10.4313 7.22442 10.5168 7.53301 10.5089 7.84635C10.5119 8.16337 10.4237 8.47458 10.2547 8.74283C10.0964 9.00112 9.86871 9.20977 9.59764 9.34506C9.33045 9.479 8.96131 9.5458 8.49021 9.54545H7.31846C7.19566 9.54545 7.07789 9.49667 6.99106 9.40984C6.90423 9.32301 6.85545 9.20524 6.85545 9.08244V4.1734ZM20.8037 21.3047H6.19627C6.11235 21.3047 6.03187 21.2714 5.97254 21.212C5.9132 21.1527 5.87986 21.0722 5.87986 20.9883C5.87986 20.9044 5.9132 20.8239 5.97254 20.7645C6.03187 20.7052 6.11235 20.6719 6.19627 20.6719H20.8037C20.8876 20.6719 20.9681 20.7052 21.0274 20.7645C21.0868 20.8239 21.1201 20.9044 21.1201 20.9883C21.1201 21.0722 21.0868 21.1527 21.0274 21.212C20.9681 21.2714 20.8876 21.3047 20.8037 21.3047ZM20.8037 18.668H6.19627C6.11235 18.668 6.03187 18.6346 5.97254 18.5753C5.9132 18.516 5.87986 18.4355 5.87986 18.3516C5.87986 18.2676 5.9132 18.1872 5.97254 18.1278C6.03187 18.0685 6.11235 18.0352 6.19627 18.0352H20.8037C20.8876 18.0352 20.9681 18.0685 21.0274 18.1278C21.0868 18.1872 21.1201 18.2676 21.1201 18.3516C21.1201 18.4355 21.0868 18.516 21.0274 18.5753C20.9681 18.6346 20.8876 18.668 20.8037 18.668ZM20.8037 16.0312H6.19627C6.11235 16.0312 6.03187 15.9979 5.97254 15.9386C5.9132 15.8792 5.87986 15.7988 5.87986 15.7148C5.87986 15.6309 5.9132 15.5504 5.97254 15.4911C6.03187 15.4318 6.11235 15.3984 6.19627 15.3984H20.8037C20.8876 15.3984 20.9681 15.4318 21.0274 15.4911C21.0868 15.5504 21.1201 15.6309 21.1201 15.7148C21.1201 15.7988 21.0868 15.8792 21.0274 15.9386C20.9681 15.9979 20.8876 16.0312 20.8037 16.0312ZM20.8037 13.3945H6.19627C6.11235 13.3945 6.03187 13.3612 5.97254 13.3019C5.9132 13.2425 5.87986 13.162 5.87986 13.0781C5.87986 12.9942 5.9132 12.9137 5.97254 12.8544C6.03187 12.7951 6.11235 12.7617 6.19627 12.7617H20.8037C20.8876 12.7617 20.9681 12.7951 21.0274 12.8544C21.0868 12.9137 21.1201 12.9942 21.1201 13.0781C21.1201 13.162 21.0868 13.2425 21.0274 13.3019C20.9681 13.3612 20.8876 13.3945 20.8037 13.3945Z" fill="white"/>
<path d="M8.1968 5.9991H8.20893C8.47963 5.9991 8.68072 5.94232 8.81221 5.82877C8.87789 5.77125 8.92973 5.69964 8.96388 5.61929C8.99803 5.53894 9.0136 5.45191 9.00943 5.36471C9.01295 5.28286 8.99794 5.20127 8.96552 5.12603C8.93311 5.05079 8.88413 4.98384 8.82223 4.93018C8.69707 4.82471 8.50723 4.77197 8.2527 4.77197H8.1968C8.13554 4.77197 8.07679 4.79631 8.03347 4.83962C7.99016 4.88294 7.96582 4.94169 7.96582 5.00295V5.77129C7.96665 5.832 7.99135 5.88994 8.03458 5.93257C8.07781 5.97521 8.13608 5.99911 8.1968 5.9991Z" fill="white"/>
</svg>
