<svg width="27" height="27" viewBox="0 0 27 27" fill="none" xmlns="http://www.w3.org/2000/svg">
<path fill-rule="evenodd" clip-rule="evenodd" d="M13.5 11.7851C14.2275 11.7851 14.9386 11.5514 15.5434 11.1138C16.1483 10.6761 16.6197 10.054 16.898 9.3263C17.1764 8.59854 17.2492 7.79777 17.1072 7.02522C16.9652 6.25268 16.6149 5.54306 16.1004 4.98611C15.586 4.42916 14.9306 4.04989 14.2171 3.89626C13.5036 3.74263 12.764 3.82154 12.0919 4.123C11.4199 4.42447 10.8454 4.93496 10.4413 5.58992C10.0371 6.24487 9.82144 7.01488 9.82146 7.80257C9.82256 8.85852 10.2105 9.87088 10.9001 10.6175C11.5898 11.3641 12.5248 11.7841 13.5 11.7851ZM13.5 5.19016C13.9771 5.19024 14.4435 5.34351 14.8402 5.63059C15.2369 5.91767 15.5461 6.32566 15.7286 6.80299C15.9112 7.28031 15.9589 7.80553 15.8658 8.31222C15.7727 8.81892 15.5429 9.28434 15.2055 9.64963C14.8681 10.0149 14.4382 10.2637 13.9702 10.3645C13.5023 10.4652 13.0172 10.4135 12.5764 10.2158C12.1356 10.0181 11.7588 9.68328 11.4937 9.25372C11.2286 8.82416 11.0871 8.31914 11.0871 7.80251C11.0878 7.10986 11.3422 6.4458 11.7946 5.95605C12.247 5.46631 12.8603 5.19082 13.5 5.19016ZM8.87651 3.96093L8.0094 2.71336L8.79968 1.85733L9.95214 2.7965C10.054 2.87937 10.1766 2.92705 10.3039 2.93331C10.4311 2.93956 10.5572 2.9041 10.6656 2.83156C11.1573 2.50159 11.6951 2.26009 12.2582 2.11644C12.3822 2.08487 12.4946 2.01347 12.5805 1.91158C12.6664 1.80969 12.7219 1.68208 12.7397 1.54545L12.941 0H14.059L14.2607 1.54545C14.2785 1.68211 14.3339 1.80978 14.4199 1.91169C14.5058 2.01359 14.6182 2.08497 14.7423 2.11644C15.3053 2.26015 15.843 2.50165 16.3346 2.83156C16.4429 2.90422 16.569 2.93975 16.6963 2.93349C16.8236 2.92723 16.9462 2.87948 17.048 2.7965L18.2001 1.85733L18.9906 2.7133L18.1237 3.96093C18.047 4.07114 18.0029 4.20387 17.997 4.34172C17.9912 4.47956 18.024 4.6161 18.0911 4.73342C18.396 5.26577 18.6191 5.84813 18.7518 6.45782C18.781 6.59212 18.847 6.71374 18.9411 6.80678C19.0352 6.89982 19.153 6.95993 19.2792 6.97925L20.706 7.198V8.40788L19.2787 8.62577C19.1526 8.64529 19.0348 8.70547 18.9408 8.79847C18.8467 8.89148 18.7807 9.013 18.7513 9.1472C18.6188 9.75688 18.3959 10.3392 18.0911 10.8716C18.0241 10.989 17.9913 11.1255 17.997 11.2634C18.0027 11.4012 18.0467 11.534 18.1232 11.6444L18.9906 12.8925L18.2001 13.7479L17.0479 12.809C16.946 12.7261 16.8234 12.6784 16.6961 12.6722C16.5688 12.666 16.4427 12.7016 16.3344 12.7742C15.8426 13.104 15.3048 13.3454 14.7418 13.4891C14.6178 13.5206 14.5054 13.592 14.4195 13.6939C14.3336 13.7958 14.2781 13.9235 14.2603 14.0601L14.059 15.6052H12.941L12.7394 14.0595C12.7215 13.9229 12.666 13.7954 12.5802 13.6935C12.4943 13.5917 12.3821 13.5202 12.2581 13.4885C11.695 13.3451 11.1572 13.1037 10.6655 12.7736C10.5572 12.7011 10.4311 12.6656 10.3038 12.6719C10.1765 12.6782 10.0539 12.7259 9.95208 12.8089L8.79963 13.7479L8.00935 12.8919L8.8763 11.6442C8.95293 11.5339 8.99704 11.4011 9.00285 11.2632C9.00867 11.1253 8.97592 10.9888 8.90889 10.8714C8.60381 10.3392 8.38075 9.75676 8.24845 9.14697C8.21918 9.01271 8.1532 8.89113 8.05912 8.7981C7.96504 8.70508 7.84724 8.64494 7.7211 8.62554L6.29401 8.40765V7.19794L7.7211 6.9792C7.8473 6.95987 7.96518 6.89976 8.05932 6.80673C8.15346 6.7137 8.21949 6.59208 8.24876 6.45777C8.38145 5.84816 8.6044 5.26583 8.90895 4.73337C8.97605 4.61606 9.00886 4.47954 9.00309 4.34169C8.99731 4.20385 8.95321 4.07111 8.87657 3.96087L8.87651 3.96093ZM25.0488 2.32845C25.5661 2.32912 26.0621 2.55192 26.4278 2.94798C26.7936 3.34404 26.9994 3.88102 27 4.44113V19.1503H0V4.44119C0.000614066 3.88107 0.206381 3.34409 0.572163 2.94803C0.937946 2.55198 1.43388 2.32918 1.95117 2.32851H6.61458C6.52082 2.54526 6.68605 3.00206 7.11028 3.6989L7.61426 4.42406C7.41653 4.8269 7.25476 5.24925 7.13116 5.68538L5.57249 5.92406C5.42156 5.94718 5.2834 6.02852 5.18342 6.15313C5.08345 6.27773 5.02837 6.43722 5.02833 6.60228V9.00268C5.02827 9.16779 5.08332 9.32736 5.18333 9.452C5.28335 9.57663 5.4216 9.65793 5.5726 9.68091L7.13106 9.91953C7.25464 10.3558 7.41639 10.7784 7.61411 11.1814L6.66763 12.543C6.57593 12.675 6.53132 12.8385 6.54198 13.0033C6.55263 13.1681 6.61784 13.3232 6.72564 13.4402L8.29332 15.137C8.40111 15.2539 8.54428 15.3246 8.69644 15.3362C8.84859 15.3477 8.99948 15.2993 9.12125 15.1998L10.3797 14.1747C10.7516 14.3891 11.1417 14.5643 11.5446 14.6978L11.765 16.3858C11.7863 16.5492 11.8614 16.6988 11.9765 16.8071C12.0916 16.9153 12.2389 16.9749 12.3914 16.9748H14.6083C14.7607 16.9749 14.908 16.9154 15.0231 16.8073C15.1382 16.6992 15.2135 16.5497 15.235 16.3863L15.4553 14.699C15.8582 14.565 16.2483 14.3895 16.6202 14.1751L17.8784 15.2002C18.0002 15.2996 18.1511 15.3479 18.3032 15.3364C18.4554 15.3249 18.5985 15.2542 18.7064 15.1374L20.274 13.4405C20.3819 13.3236 20.4472 13.1685 20.4578 13.0036C20.4685 12.8388 20.4238 12.6753 20.3321 12.5433L19.3853 11.181C19.5831 10.7781 19.7448 10.3558 19.8684 9.91964L21.4273 9.68102C21.5783 9.65798 21.7165 9.57665 21.8164 9.45203C21.9164 9.3274 21.9714 9.16786 21.9714 9.0028V6.60228C21.9714 6.43721 21.9163 6.27768 21.8164 6.15303C21.7164 6.02838 21.5783 5.94699 21.4273 5.92383L19.8684 5.68515C19.7451 5.24891 19.5833 4.82652 19.3853 4.42383L19.8896 3.69867C20.2254 2.99414 20.3907 2.53734 20.3853 2.32828L25.0488 2.32845ZM0 20.5207V21.3212C0.000627992 21.8813 0.206399 22.4183 0.572179 22.8144C0.937958 23.2104 1.43388 23.4332 1.95117 23.4339H11.1623V25.6296H9.96627C9.79844 25.6296 9.63748 25.7018 9.5188 25.8303C9.40013 25.9588 9.33346 26.1331 9.33346 26.3148C9.33346 26.4965 9.40013 26.6708 9.5188 26.7993C9.63748 26.9278 9.79844 27 9.96627 27H17.0337C17.2015 27 17.3625 26.9278 17.4811 26.7993C17.5998 26.6708 17.6665 26.4965 17.6665 26.3148C17.6665 26.1331 17.5998 25.9588 17.4811 25.8303C17.3625 25.7018 17.2015 25.6296 17.0337 25.6296H15.8377V23.434H25.0488C25.5661 23.4333 26.062 23.2105 26.4278 22.8144C26.7936 22.4184 26.9994 21.8814 27 21.3213V20.5208L0 20.5207Z" fill="white"/>
</svg>
