<svg width="27" height="27" viewBox="0 0 27 27" fill="none" xmlns="http://www.w3.org/2000/svg">
<g clip-path="url(#clip0_20_11)">
<path d="M25.4117 5.95587V11.5147H26.2059C26.6445 11.5147 27 11.8702 27 12.3088C27 12.7474 26.6445 13.103 26.2059 13.103H13.5C13.0614 13.103 12.7059 12.7474 12.7059 12.3088C12.7059 11.8702 13.0614 11.5147 13.5 11.5147H14.2941V5.95587H13.5C13.0614 5.95587 12.7059 5.60034 12.7059 5.16175V3.97058C12.7059 3.82311 12.7469 3.67854 12.8245 3.55309C12.902 3.42764 13.0129 3.32626 13.1448 3.2603L19.4978 0.0838483C19.6081 0.0287074 19.7297 0 19.8529 0C19.9762 0 20.0978 0.0287074 20.2081 0.0838483L26.561 3.2603C26.6929 3.32626 26.8039 3.42764 26.8814 3.55309C26.9589 3.67854 27 3.82311 27 3.97058V5.16175C27 5.60034 26.6445 5.95587 26.2059 5.95587H25.4117ZM23.8235 5.95587H22.2353V11.5147H23.8235V5.95587ZM20.647 5.95587H19.0588V11.5147H20.647V5.95587ZM17.4706 5.95587H15.8823V11.5147H17.4706V5.95587ZM12.7059 19.853V25.4118H13.5C13.9386 25.4118 14.2941 25.7673 14.2941 26.2059C14.2941 26.6445 13.9386 27.0001 13.5 27.0001H0.794127C0.355535 27.0001 7.26915e-10 26.6445 7.26915e-10 26.2059C7.26915e-10 25.7673 0.355535 25.4118 0.794127 25.4118H1.58825V19.853H0.794127C0.355535 19.853 7.26915e-10 19.4974 7.26915e-10 19.0588V17.8677C-6.30841e-06 17.7202 0.0410568 17.5756 0.118588 17.4502C0.196118 17.3247 0.307053 17.2233 0.438961 17.1574L6.79192 13.9809C6.90219 13.9258 7.02378 13.8971 7.14706 13.8971C7.27035 13.8971 7.39194 13.9258 7.5022 13.9809L13.8552 17.1574C13.9871 17.2233 14.098 17.3247 14.1755 17.4502C14.2531 17.5756 14.2941 17.7202 14.2941 17.8677V19.0588C14.2941 19.4974 13.9386 19.853 13.5 19.853H12.7059ZM11.1177 19.853H9.52942V25.4118H11.1177V19.853ZM7.94116 19.853H6.35291V25.4118H7.94116V19.853ZM4.76471 19.853H3.17646V25.4118H4.76471V19.853ZM23.4265 18.9907V19.4559C23.4265 21.868 21.471 23.8235 19.0588 23.8235H17.4705C17.0319 23.8235 16.6764 23.468 16.6764 23.0294C16.6764 22.5908 17.0319 22.2352 17.4705 22.2352H19.0588C20.5938 22.2352 21.8382 20.9909 21.8382 19.4558V18.9907L21.2086 19.6203C20.8985 19.9304 20.3957 19.9304 20.0855 19.6203C19.7754 19.3102 19.7754 18.8073 20.0855 18.4973L22.0708 16.512C22.3809 16.2018 22.8837 16.2018 23.1938 16.512L25.1791 18.4973C25.4893 18.8074 25.4893 19.3102 25.1791 19.6203C24.8691 19.9304 24.3662 19.9304 24.0561 19.6203L23.4265 18.9907ZM3.57354 8.0093V7.54413C3.57354 5.13195 5.52899 3.17646 7.94122 3.17646H9.52947C9.96806 3.17646 10.3236 3.53199 10.3236 3.97058C10.3236 4.40917 9.96806 4.76471 9.52947 4.76471H7.94122C6.40622 4.76471 5.1618 6.00908 5.1618 7.54413V8.0093L5.79145 7.37965C6.10153 7.06952 6.60435 7.06952 6.91448 7.37965C7.22461 7.68978 7.22461 8.1926 6.91448 8.50268L4.92919 10.488C4.61911 10.7981 4.11629 10.7981 3.80616 10.488L1.82087 8.50268C1.51073 8.19255 1.51073 7.68973 1.82087 7.37965C2.13094 7.06952 2.63377 7.06952 2.9439 7.37965L3.57354 8.0093Z" fill="white"/>
</g>
<defs>
<clipPath id="clip0_20_11">
<rect width="27" height="27" fill="white"/>
</clipPath>
</defs>
</svg>
