<svg width="15" height="10" viewBox="0 0 15 10" fill="none" xmlns="http://www.w3.org/2000/svg">
<path d="M15 1.54602V8.01204L10.0967 4.815L15 1.54602ZM14.9594 0.75375C14.9008 0.537907 14.773 0.347266 14.5956 0.2111C14.4181 0.0749342 14.2009 0.000771536 13.9773 0H1.02273C0.552273 0 0.159545 0.320455 0.0405682 0.753409L7.5 5.72693L14.9594 0.75375ZM7.6892 6.42C7.63318 6.45738 7.56735 6.47732 7.5 6.47732C7.43265 6.47732 7.36682 6.45738 7.3108 6.42L5.51795 5.22477L0.0426136 8.79818C0.102261 9.01251 0.230281 9.2015 0.4072 9.33638C0.584118 9.47127 0.800253 9.54469 1.02273 9.54545H13.9773C14.445 9.54545 14.8364 9.22773 14.9574 8.79818L9.48 5.22614L7.6892 6.42ZM0 1.54602V8.01136L4.90091 4.8133L0 1.54602Z" fill="#525252"/>
</svg>
