<svg width="41" height="41" viewBox="0 0 41 41" fill="none" xmlns="http://www.w3.org/2000/svg">
<g clip-path="url(#clip0_108_1676)">
<path d="M20.5 41C31.8218 41 41 31.8218 41 20.5C41 9.17816 31.8218 0 20.5 0C9.17816 0 0 9.17816 0 20.5C0 31.8218 9.17816 41 20.5 41Z" fill="#3A559F"/>
<path d="M26.9948 18.0726L26.5824 21.6438C26.5653 21.8068 26.489 21.9578 26.3679 22.0681C26.2468 22.1785 26.0893 22.2405 25.9255 22.2425H22.1982L22.1796 32.8303C22.1809 32.9558 22.1327 33.0767 22.0455 33.1669C21.9583 33.2571 21.8391 33.3094 21.7137 33.3125H17.9375C17.8747 33.3126 17.8126 33.2999 17.7548 33.2753C17.697 33.2508 17.6448 33.2148 17.6013 33.1695C17.5578 33.1243 17.5238 33.0707 17.5016 33.012C17.4793 32.9533 17.4691 32.8907 17.4716 32.828V22.2425H14.6761C14.5883 22.2416 14.5016 22.2234 14.4208 22.1889C14.34 22.1545 14.2668 22.1045 14.2054 22.0417C14.144 21.979 14.0955 21.9048 14.0628 21.8233C14.03 21.7419 14.0136 21.6547 14.0145 21.5669L14.0006 17.9957C13.9993 17.9076 14.0155 17.8201 14.0481 17.7383C14.0806 17.6564 14.129 17.5818 14.1905 17.5186C14.2519 17.4554 14.3252 17.405 14.4061 17.3701C14.487 17.3353 14.5741 17.3167 14.6622 17.3155H17.4716V13.8678C17.4716 9.86562 19.8477 7.6875 23.3327 7.6875H26.1887C26.2771 7.68841 26.3643 7.70675 26.4455 7.74146C26.5267 7.77616 26.6003 7.82656 26.662 7.88976C26.7236 7.95296 26.7722 8.02771 26.805 8.10973C26.8377 8.19175 26.8539 8.27943 26.8527 8.36773V11.3728C26.8539 11.4611 26.8377 11.5488 26.805 11.6308C26.7722 11.7129 26.7236 11.7876 26.662 11.8508C26.6003 11.914 26.5267 11.9644 26.4455 11.9991C26.3643 12.0338 26.2771 12.0522 26.1887 12.0531H24.4369C22.543 12.0531 22.1749 12.9849 22.1749 14.3314V17.3155H26.3378C26.4325 17.3167 26.5259 17.3379 26.6117 17.3778C26.6976 17.4176 26.7741 17.4752 26.8362 17.5467C26.8982 17.6182 26.9444 17.702 26.9718 17.7927C26.9991 17.8833 27.0069 17.9787 26.9948 18.0726Z" fill="white"/>
</g>
<defs>
<clipPath id="clip0_108_1676">
<rect width="41" height="41" fill="white"/>
</clipPath>
</defs>
</svg>
