<svg width="41" height="41" viewBox="0 0 41 41" fill="none" xmlns="http://www.w3.org/2000/svg">
<path d="M9.60938 20.5C9.60938 18.4687 10.169 16.5658 11.1413 14.9364V8.02502H4.22997C1.48689 11.5875 0 15.9293 0 20.5C0 25.0707 1.48689 29.4125 4.22997 32.975H11.1413V26.0636C10.169 24.4342 9.60938 22.5313 9.60938 20.5Z" fill="#FBBD00"/>
<path d="M20.5 31.3906L15.6953 36.1953L20.5 41C25.0708 41 29.4125 39.5131 32.975 36.77V29.866H26.071C24.4274 30.8419 22.5164 31.3906 20.5 31.3906Z" fill="#0F9D58"/>
<path d="M11.1413 26.0636L4.22997 32.975C4.77727 33.6861 5.36996 34.3611 6.00434 34.9958C9.87627 38.8676 15.0243 41 20.5 41V31.3906C16.5262 31.3906 13.0434 29.2509 11.1413 26.0636Z" fill="#31AA52"/>
<path d="M41 20.5C41.0002 19.2545 40.8878 18.0115 40.6643 16.7862L40.4841 15.8013H20.5V25.4107H30.2256C29.295 27.2624 27.8532 28.8086 26.0709 29.8661L32.9749 36.7701C33.686 36.2228 34.361 35.6301 34.9957 34.9957C38.8676 31.1237 41 25.9757 41 20.5Z" fill="#3C79E6"/>
<path d="M28.2009 12.7991L29.0502 13.6484L35.8451 6.85365L34.9957 6.00434C31.1238 2.1324 25.9758 0 20.5 0L15.6953 4.80469L20.5 9.60938C23.4089 9.60938 26.1438 10.7422 28.2009 12.7991Z" fill="#CF2D48"/>
<path d="M20.5 9.60938V0C15.0243 0 9.87628 2.1324 6.00426 6.00426C5.36985 6.63888 4.77715 7.31388 4.22989 8.02503L11.1413 14.9364C13.0434 11.7491 16.5262 9.60938 20.5 9.60938Z" fill="#EB4132"/>
</svg>
