<svg width="41" height="41" viewBox="0 0 41 41" fill="none" xmlns="http://www.w3.org/2000/svg">
<g clip-path="url(#clip0_108_1690)">
<path d="M20.5 41C31.8218 41 41 31.8218 41 20.5C41 9.17816 31.8218 0 20.5 0C9.17816 0 0 9.17816 0 20.5C0 31.8218 9.17816 41 20.5 41Z" fill="#0B69C7"/>
<path d="M15.9145 13.0472C15.915 13.6012 15.7512 14.1429 15.4437 14.6037C15.1363 15.0646 14.699 15.4238 14.1873 15.6361C13.6756 15.8483 13.1124 15.904 12.569 15.7961C12.0257 15.6881 11.5265 15.4214 11.1348 15.0297C10.7431 14.6379 10.4764 14.1388 10.3684 13.5954C10.2605 13.0521 10.3161 12.4889 10.5284 11.9772C10.7406 11.4654 11.0999 11.0282 11.5608 10.7207C12.0216 10.4133 12.5633 10.2495 13.1173 10.25C13.8589 10.2507 14.57 10.5456 15.0944 11.0701C15.6188 11.5945 15.9138 12.3055 15.9145 13.0472Z" fill="white"/>
<path d="M14.5901 17.0123H11.6445C11.2617 17.0123 10.9513 17.3227 10.9513 17.7055V30.0568C10.9513 30.4396 11.2617 30.75 11.6445 30.75H14.5901C14.9729 30.75 15.2833 30.4396 15.2833 30.0568V17.7055C15.2833 17.3227 14.9729 17.0123 14.5901 17.0123Z" fill="white"/>
<path d="M30.6826 24.1334V30.1134C30.6826 30.2823 30.6155 30.4442 30.4961 30.5635C30.3767 30.6829 30.2148 30.75 30.046 30.75H26.8847C26.7158 30.75 26.5539 30.6829 26.4346 30.5635C26.3152 30.4442 26.2481 30.2823 26.2481 30.1134V24.3195C26.2481 23.4536 26.499 20.5432 23.9877 20.5432C22.0402 20.5432 21.6437 22.5446 21.5601 23.4428V30.1269C21.5566 30.2925 21.4887 30.4501 21.3709 30.5665C21.253 30.6828 21.0945 30.7486 20.9289 30.75H17.8701C17.7864 30.7504 17.7034 30.7341 17.626 30.7023C17.5487 30.6704 17.4783 30.6235 17.4191 30.5643C17.36 30.5052 17.3131 30.4348 17.2812 30.3574C17.2494 30.2801 17.2331 30.1971 17.2335 30.1134V17.6516C17.2331 17.5678 17.2493 17.4847 17.2812 17.4071C17.313 17.3296 17.3598 17.2591 17.419 17.1997C17.4781 17.1403 17.5484 17.0932 17.6258 17.061C17.7033 17.0289 17.7863 17.0123 17.8701 17.0123H20.9289C21.0137 17.0109 21.098 17.0263 21.1768 17.0578C21.2557 17.0893 21.3274 17.1362 21.3879 17.1957C21.4484 17.2552 21.4965 17.3261 21.5293 17.4044C21.5621 17.4827 21.579 17.5667 21.579 17.6516V18.7305C22.3019 17.6516 23.3754 16.81 25.6601 16.81C30.7122 16.8073 30.6826 21.5358 30.6826 24.1334Z" fill="white"/>
</g>
<defs>
<clipPath id="clip0_108_1690">
<rect width="41" height="41" fill="white"/>
</clipPath>
</defs>
</svg>
