<svg width="294" height="83" viewBox="0 0 294 83" fill="none" xmlns="http://www.w3.org/2000/svg">
<path d="M108.46 33.2771H101.397V11.4589H108.684C110.822 11.4589 112.658 11.8957 114.192 12.7693C115.726 13.6358 116.901 14.8822 117.718 16.5086C118.542 18.128 118.954 20.0704 118.954 22.336C118.954 24.6088 118.538 26.5619 117.707 28.1954C116.884 29.8289 115.69 31.086 114.128 31.9667C112.565 32.8403 110.676 33.2771 108.46 33.2771ZM104.689 30.4007H108.279C109.941 30.4007 111.322 30.0882 112.423 29.4632C113.524 28.8311 114.348 27.9184 114.895 26.7253C115.442 25.525 115.715 24.0619 115.715 22.336C115.715 20.6244 115.442 19.172 114.895 17.9788C114.355 16.7856 113.549 15.8801 112.477 15.2622C111.404 14.6443 110.072 14.3353 108.482 14.3353H104.689V30.4007ZM122.792 33.2771V16.9135H125.977V33.2771H122.792ZM124.4 14.3886C123.846 14.3886 123.371 14.2039 122.973 13.8346C122.582 13.4582 122.387 13.0108 122.387 12.4923C122.387 11.9667 122.582 11.5193 122.973 11.15C123.371 10.7735 123.846 10.5853 124.4 10.5853C124.954 10.5853 125.427 10.7735 125.817 11.15C126.215 11.5193 126.414 11.9667 126.414 12.4923C126.414 13.0108 126.215 13.4582 125.817 13.8346C125.427 14.2039 124.954 14.3886 124.4 14.3886ZM137.123 39.7544C135.824 39.7544 134.705 39.5839 133.767 39.243C132.837 38.9021 132.077 38.4511 131.488 37.89C130.898 37.3289 130.458 36.7146 130.167 36.047L132.904 34.9177C133.096 35.2302 133.352 35.5605 133.672 35.9085C133.998 36.2636 134.439 36.5655 134.993 36.814C135.554 37.0626 136.275 37.1869 137.155 37.1869C138.363 37.1869 139.36 36.8922 140.149 36.3027C140.937 35.7203 141.331 34.7899 141.331 33.5115V30.2941H141.129C140.937 30.6422 140.66 31.0292 140.298 31.4554C139.943 31.8815 139.453 32.2508 138.828 32.5633C138.203 32.8758 137.39 33.0321 136.388 33.0321C135.096 33.0321 133.931 32.7302 132.894 32.1265C131.864 31.5157 131.047 30.6173 130.444 29.4312C129.847 28.238 129.549 26.7714 129.549 25.0314C129.549 23.2913 129.843 21.7998 130.433 20.5569C131.029 19.314 131.846 18.3623 132.883 17.7018C133.92 17.0342 135.096 16.7004 136.409 16.7004C137.425 16.7004 138.245 16.8708 138.87 17.2118C139.495 17.5456 139.982 17.9362 140.33 18.3836C140.685 18.8311 140.958 19.2253 141.15 19.5662H141.385V16.9135H144.506V33.6393C144.506 35.0456 144.179 36.1997 143.526 37.1017C142.873 38.0037 141.988 38.6713 140.873 39.1045C139.765 39.5378 138.515 39.7544 137.123 39.7544ZM137.091 30.39C138.007 30.39 138.782 30.177 139.414 29.7508C140.053 29.3176 140.536 28.6997 140.863 27.8971C141.196 27.0875 141.363 26.118 141.363 24.9887C141.363 23.8879 141.2 22.9184 140.873 22.0804C140.547 21.2423 140.067 20.5889 139.435 20.1201C138.803 19.6443 138.022 19.4064 137.091 19.4064C136.132 19.4064 135.333 19.6549 134.694 20.1521C134.055 20.6422 133.572 21.3098 133.245 22.1549C132.926 23.0001 132.766 23.9447 132.766 24.9887C132.766 26.0612 132.929 27.0022 133.256 27.8119C133.583 28.6216 134.066 29.2537 134.705 29.7082C135.351 30.1628 136.147 30.39 137.091 30.39ZM148.778 33.2771V16.9135H151.963V33.2771H148.778ZM150.387 14.3886C149.833 14.3886 149.357 14.2039 148.959 13.8346C148.569 13.4582 148.373 13.0108 148.373 12.4923C148.373 11.9667 148.569 11.5193 148.959 11.15C149.357 10.7735 149.833 10.5853 150.387 10.5853C150.941 10.5853 151.413 10.7735 151.804 11.15C152.201 11.5193 152.4 11.9667 152.4 12.4923C152.4 13.0108 152.201 13.4582 151.804 13.8346C151.413 14.2039 150.941 14.3886 150.387 14.3886Z" fill="#595CBD"/>
<path d="M160.252 33V11.1818H168.029C169.727 11.1818 171.133 11.4908 172.248 12.1087C173.363 12.7266 174.198 13.5717 174.752 14.6442C175.306 15.7095 175.583 16.9098 175.583 18.245C175.583 19.5874 175.302 20.7947 174.741 21.8672C174.187 22.9325 173.349 23.7777 172.227 24.4027C171.112 25.0206 169.709 25.3295 168.019 25.3295H162.671V22.5384H167.72C168.793 22.5384 169.663 22.3537 170.331 21.9844C170.998 21.608 171.488 21.0966 171.801 20.4503C172.113 19.804 172.269 19.0689 172.269 18.245C172.269 17.4212 172.113 16.6896 171.801 16.0504C171.488 15.4112 170.995 14.9105 170.32 14.5483C169.652 14.1861 168.772 14.005 167.678 14.005H163.544V33H160.252ZM179.442 33V11.1818H193.121V14.0156H182.734V20.6634H192.407V23.4865H182.734V30.1662H193.249V33H179.442Z" fill="#2A2D82"/>
<path fill-rule="evenodd" clip-rule="evenodd" d="M294 34.4377C294 33.7593 293.725 33.1086 293.234 32.6288C292.744 32.149 292.079 31.8795 291.386 31.8795H260.012C259.319 31.8795 258.654 32.149 258.163 32.6288C257.673 33.1086 257.398 33.7593 257.398 34.4377C257.398 35.1162 257.673 35.7669 258.163 36.2467C258.654 36.7265 259.319 36.996 260.012 36.996H291.386C292.079 36.996 292.744 36.7265 293.234 36.2467C293.725 35.7669 294 35.1162 294 34.4377ZM294 47.2289C294 46.5504 293.725 45.8997 293.234 45.42C292.744 44.9402 292.079 44.6707 291.386 44.6707H270.47C269.776 44.6707 269.111 44.9402 268.621 45.42C268.131 45.8997 267.855 46.5504 267.855 47.2289C267.855 47.9074 268.131 48.5581 268.621 49.0379C269.111 49.5176 269.776 49.7871 270.47 49.7871H291.386C292.079 49.7871 292.744 49.5176 293.234 49.0379C293.725 48.5581 294 47.9074 294 47.2289ZM291.386 57.4618C292.079 57.4618 292.744 57.7314 293.234 58.2111C293.725 58.6909 294 59.3416 294 60.0201C294 60.6986 293.725 61.3493 293.234 61.829C292.744 62.3088 292.079 62.5783 291.386 62.5783H260.012C259.319 62.5783 258.654 62.3088 258.163 61.829C257.673 61.3493 257.398 60.6986 257.398 60.0201C257.398 59.3416 257.673 58.6909 258.163 58.2111C258.654 57.7314 259.319 57.4618 260.012 57.4618H291.386Z" fill="#595CBD"/>
<path d="M18.3012 0L0 16.5301H8.85542V82.6506H60.8072C73.559 78.4 81.8635 66.7108 84.4217 61.3976C88.6723 49.1181 88.1606 35.8153 87.3735 30.6988C81.706 8.97349 67.3012 1.18072 60.8072 0H31.2892L48.4096 17.7108H59.6265C64.3494 21.4892 67.498 27.1566 68.4819 29.5181C71.3157 35.1855 71.6305 43.6867 71.4337 47.2289C69.0723 58.5639 61.004 63.759 57.2651 64.9398H27.1566V16.5301H36.0121L18.3012 0Z" fill="#595CBD"/>
<path d="M38.3735 82.6506L27.747 64.9397H57.8554C71.5518 58.3277 72.2209 44.8674 70.8434 37.7831L87.3735 48.4096C86.4289 69.6626 70.8434 79.6988 63.1687 82.6506H38.3735Z" fill="#2A2D82"/>
<path d="M223.157 15.526C213.711 12.22 209.775 15.7228 208.988 17.8875C213.711 16.9429 220.008 20.2489 222.566 22.02C224.455 23.9092 222.566 29.4979 221.386 32.0561C219.024 39.1405 221.582 42.4859 223.157 43.273C231.658 40.9116 241.261 45.0441 245 47.4055C243.583 39.8489 235.751 36.779 232.012 36.1887C227.761 36.661 227.486 35.9919 227.88 35.5983C229.296 34.6537 230.438 32.0561 230.831 30.8754C230.831 28.514 232.799 28.7108 233.783 29.1043C240.867 31.9381 246.181 28.3172 247.952 26.1525C245.118 26.6248 241.655 25.9557 240.277 25.5622C235.554 23.673 226.896 18.0843 223.157 15.526Z" fill="#2A2D82"/>
<path d="M220.795 44.2771C217.017 43.8048 216.86 39.751 217.253 37.7831C213.947 40.1446 209.185 39.9478 207.217 39.5542C202.966 38.6096 201.116 37.9799 200.723 37.7831C203.084 41.5614 206.036 44.4739 207.217 45.4578C213.357 49.2361 218.827 46.245 220.795 44.2771Z" fill="#595CBD"/>
<ellipse cx="234.623" cy="10.9973" rx="5.42178" ry="6.96522" transform="rotate(25.9635 234.623 10.9973)" fill="#595CBD"/>
<g filter="url(#filter0_dd_108_1625)">
<path d="M92.0964 54.3133H250.313V70.8434H92.0964V54.3133Z" fill="#595CBD"/>
</g>
<mask id="path-10-outside-1_108_1625" maskUnits="userSpaceOnUse" x="102" y="58" width="132" height="9" fill="black">
<rect fill="white" x="102" y="58" width="132" height="9"/>
<path d="M109.216 62.3636C109.216 63.1473 109.069 63.8184 108.776 64.3771C108.484 64.9335 108.087 65.3596 107.582 65.6555C107.08 65.9515 106.511 66.0994 105.874 66.0994C105.237 66.0994 104.667 65.9515 104.163 65.6555C103.661 65.3572 103.263 64.9299 102.969 64.3736C102.678 63.8149 102.533 63.1449 102.533 62.3636C102.533 61.58 102.678 60.91 102.969 60.3537C103.263 59.795 103.661 59.3677 104.163 59.0717C104.667 58.7758 105.237 58.6278 105.874 58.6278C106.511 58.6278 107.08 58.7758 107.582 59.0717C108.087 59.3677 108.484 59.795 108.776 60.3537C109.069 60.91 109.216 61.58 109.216 62.3636ZM107.891 62.3636C107.891 61.812 107.805 61.3468 107.632 60.968C107.462 60.5869 107.225 60.2992 106.922 60.1051C106.619 59.9086 106.27 59.8104 105.874 59.8104C105.479 59.8104 105.13 59.9086 104.827 60.1051C104.524 60.2992 104.286 60.5869 104.113 60.968C103.942 61.3468 103.857 61.812 103.857 62.3636C103.857 62.9152 103.942 63.3816 104.113 63.7628C104.286 64.1416 104.524 64.4292 104.827 64.6257C105.13 64.8198 105.479 64.9169 105.874 64.9169C106.27 64.9169 106.619 64.8198 106.922 64.6257C107.225 64.4292 107.462 64.1416 107.632 63.7628C107.805 63.3816 107.891 62.9152 107.891 62.3636ZM119.838 58.7273V66H118.666L115.239 61.0462H115.179V66H113.861V58.7273H115.04L118.464 63.6847H118.528V58.7273H119.838ZM124.674 66V58.7273H129.404V59.8317H125.991V61.8061H129.159V62.9105H125.991V64.8956H129.432V66H124.674ZM143.981 60.7266C143.948 60.4164 143.808 60.175 143.562 60.0021C143.318 59.8293 143.001 59.7429 142.61 59.7429C142.335 59.7429 142.1 59.7843 141.903 59.8672C141.707 59.95 141.556 60.0625 141.452 60.2045C141.348 60.3466 141.295 60.5088 141.292 60.6911C141.292 60.8426 141.327 60.974 141.395 61.0852C141.466 61.1965 141.562 61.2912 141.683 61.3693C141.804 61.4451 141.938 61.509 142.084 61.5611C142.231 61.6132 142.379 61.657 142.528 61.6925L143.21 61.8629C143.485 61.9268 143.749 62.0133 144.002 62.1222C144.258 62.2311 144.486 62.3684 144.687 62.5341C144.891 62.6998 145.052 62.8999 145.17 63.1342C145.289 63.3686 145.348 63.6432 145.348 63.9581C145.348 64.3842 145.239 64.7595 145.021 65.0838C144.803 65.4058 144.488 65.6579 144.077 65.8402C143.667 66.0201 143.171 66.1101 142.589 66.1101C142.023 66.1101 141.532 66.0225 141.115 65.8473C140.701 65.6721 140.376 65.4164 140.142 65.0803C139.91 64.7441 139.784 64.3345 139.765 63.8516H141.062C141.081 64.1049 141.159 64.3156 141.296 64.4837C141.433 64.6518 141.612 64.7772 141.832 64.8601C142.055 64.9429 142.303 64.9844 142.578 64.9844C142.864 64.9844 143.115 64.9418 143.331 64.8565C143.549 64.7689 143.719 64.6482 143.842 64.4943C143.965 64.3381 144.028 64.1558 144.03 63.9474C144.028 63.758 143.972 63.6018 143.863 63.4787C143.755 63.3532 143.602 63.2491 143.405 63.1662C143.211 63.081 142.984 63.0052 142.724 62.9389L141.896 62.7259C141.297 62.572 140.824 62.3388 140.476 62.0263C140.13 61.7114 139.957 61.2936 139.957 60.7727C139.957 60.3442 140.073 59.969 140.305 59.647C140.54 59.325 140.858 59.0753 141.261 58.8977C141.663 58.7178 142.119 58.6278 142.628 58.6278C143.144 58.6278 143.596 58.7178 143.984 58.8977C144.375 59.0753 144.681 59.3227 144.904 59.6399C145.127 59.9548 145.241 60.317 145.248 60.7266H143.981ZM149.603 59.8317V58.7273H155.405V59.8317H153.157V66H151.851V59.8317H149.603ZM159.924 66V58.7273H164.654V59.8317H161.241V61.8061H164.409V62.9105H161.241V64.8956H164.682V66H159.924ZM169.398 66V58.7273H172.125C172.684 58.7273 173.153 58.8314 173.532 59.0398C173.913 59.2481 174.201 59.5346 174.395 59.8991C174.591 60.2614 174.689 60.6733 174.689 61.1349C174.689 61.6013 174.591 62.0156 174.395 62.3778C174.198 62.7401 173.908 63.0253 173.525 63.2337C173.141 63.4396 172.669 63.5426 172.108 63.5426H170.3V62.4595H171.93C172.257 62.4595 172.524 62.4027 172.733 62.2891C172.941 62.1754 173.095 62.0192 173.194 61.8203C173.296 61.6214 173.347 61.393 173.347 61.1349C173.347 60.8769 173.296 60.6496 173.194 60.4531C173.095 60.2566 172.94 60.1039 172.729 59.995C172.521 59.8838 172.252 59.8281 171.923 59.8281H170.716V66H169.398ZM186.048 66H184.642L187.202 58.7273H188.829L191.393 66H189.986L188.044 60.2188H187.987L186.048 66ZM186.094 63.1484H189.93V64.2067H186.094V63.1484ZM195.751 66V58.7273H197.068V61.8061H200.438V58.7273H201.759V66H200.438V62.9105H197.068V66H195.751ZM206.592 66V58.7273H211.322V59.8317H207.909V61.8061H211.077V62.9105H207.909V64.8956H211.35V66H206.592ZM217 66H215.594L218.154 58.7273H219.781L222.345 66H220.938L218.996 60.2188H218.939L217 66ZM217.046 63.1484H220.882V64.2067H217.046V63.1484ZM229.167 66H226.702V58.7273H229.217C229.939 58.7273 230.559 58.8729 231.077 59.1641C231.598 59.4529 231.998 59.8684 232.278 60.4105C232.557 60.9527 232.697 61.6013 232.697 62.3565C232.697 63.1141 232.556 63.7652 232.274 64.3097C231.995 64.8542 231.591 65.272 231.063 65.5632C230.538 65.8544 229.906 66 229.167 66ZM228.02 64.8601H229.103C229.61 64.8601 230.032 64.7678 230.371 64.5831C230.709 64.3961 230.964 64.1179 231.134 63.7486C231.305 63.3769 231.39 62.9129 231.39 62.3565C231.39 61.8002 231.305 61.3385 231.134 60.9716C230.964 60.6023 230.712 60.3265 230.378 60.1442C230.046 59.9595 229.635 59.8672 229.142 59.8672H228.02V64.8601Z"/>
</mask>
<path d="M109.216 62.3636C109.216 63.1473 109.069 63.8184 108.776 64.3771C108.484 64.9335 108.087 65.3596 107.582 65.6555C107.08 65.9515 106.511 66.0994 105.874 66.0994C105.237 66.0994 104.667 65.9515 104.163 65.6555C103.661 65.3572 103.263 64.9299 102.969 64.3736C102.678 63.8149 102.533 63.1449 102.533 62.3636C102.533 61.58 102.678 60.91 102.969 60.3537C103.263 59.795 103.661 59.3677 104.163 59.0717C104.667 58.7758 105.237 58.6278 105.874 58.6278C106.511 58.6278 107.08 58.7758 107.582 59.0717C108.087 59.3677 108.484 59.795 108.776 60.3537C109.069 60.91 109.216 61.58 109.216 62.3636ZM107.891 62.3636C107.891 61.812 107.805 61.3468 107.632 60.968C107.462 60.5869 107.225 60.2992 106.922 60.1051C106.619 59.9086 106.27 59.8104 105.874 59.8104C105.479 59.8104 105.13 59.9086 104.827 60.1051C104.524 60.2992 104.286 60.5869 104.113 60.968C103.942 61.3468 103.857 61.812 103.857 62.3636C103.857 62.9152 103.942 63.3816 104.113 63.7628C104.286 64.1416 104.524 64.4292 104.827 64.6257C105.13 64.8198 105.479 64.9169 105.874 64.9169C106.27 64.9169 106.619 64.8198 106.922 64.6257C107.225 64.4292 107.462 64.1416 107.632 63.7628C107.805 63.3816 107.891 62.9152 107.891 62.3636ZM119.838 58.7273V66H118.666L115.239 61.0462H115.179V66H113.861V58.7273H115.04L118.464 63.6847H118.528V58.7273H119.838ZM124.674 66V58.7273H129.404V59.8317H125.991V61.8061H129.159V62.9105H125.991V64.8956H129.432V66H124.674ZM143.981 60.7266C143.948 60.4164 143.808 60.175 143.562 60.0021C143.318 59.8293 143.001 59.7429 142.61 59.7429C142.335 59.7429 142.1 59.7843 141.903 59.8672C141.707 59.95 141.556 60.0625 141.452 60.2045C141.348 60.3466 141.295 60.5088 141.292 60.6911C141.292 60.8426 141.327 60.974 141.395 61.0852C141.466 61.1965 141.562 61.2912 141.683 61.3693C141.804 61.4451 141.938 61.509 142.084 61.5611C142.231 61.6132 142.379 61.657 142.528 61.6925L143.21 61.8629C143.485 61.9268 143.749 62.0133 144.002 62.1222C144.258 62.2311 144.486 62.3684 144.687 62.5341C144.891 62.6998 145.052 62.8999 145.17 63.1342C145.289 63.3686 145.348 63.6432 145.348 63.9581C145.348 64.3842 145.239 64.7595 145.021 65.0838C144.803 65.4058 144.488 65.6579 144.077 65.8402C143.667 66.0201 143.171 66.1101 142.589 66.1101C142.023 66.1101 141.532 66.0225 141.115 65.8473C140.701 65.6721 140.376 65.4164 140.142 65.0803C139.91 64.7441 139.784 64.3345 139.765 63.8516H141.062C141.081 64.1049 141.159 64.3156 141.296 64.4837C141.433 64.6518 141.612 64.7772 141.832 64.8601C142.055 64.9429 142.303 64.9844 142.578 64.9844C142.864 64.9844 143.115 64.9418 143.331 64.8565C143.549 64.7689 143.719 64.6482 143.842 64.4943C143.965 64.3381 144.028 64.1558 144.03 63.9474C144.028 63.758 143.972 63.6018 143.863 63.4787C143.755 63.3532 143.602 63.2491 143.405 63.1662C143.211 63.081 142.984 63.0052 142.724 62.9389L141.896 62.7259C141.297 62.572 140.824 62.3388 140.476 62.0263C140.13 61.7114 139.957 61.2936 139.957 60.7727C139.957 60.3442 140.073 59.969 140.305 59.647C140.54 59.325 140.858 59.0753 141.261 58.8977C141.663 58.7178 142.119 58.6278 142.628 58.6278C143.144 58.6278 143.596 58.7178 143.984 58.8977C144.375 59.0753 144.681 59.3227 144.904 59.6399C145.127 59.9548 145.241 60.317 145.248 60.7266H143.981ZM149.603 59.8317V58.7273H155.405V59.8317H153.157V66H151.851V59.8317H149.603ZM159.924 66V58.7273H164.654V59.8317H161.241V61.8061H164.409V62.9105H161.241V64.8956H164.682V66H159.924ZM169.398 66V58.7273H172.125C172.684 58.7273 173.153 58.8314 173.532 59.0398C173.913 59.2481 174.201 59.5346 174.395 59.8991C174.591 60.2614 174.689 60.6733 174.689 61.1349C174.689 61.6013 174.591 62.0156 174.395 62.3778C174.198 62.7401 173.908 63.0253 173.525 63.2337C173.141 63.4396 172.669 63.5426 172.108 63.5426H170.3V62.4595H171.93C172.257 62.4595 172.524 62.4027 172.733 62.2891C172.941 62.1754 173.095 62.0192 173.194 61.8203C173.296 61.6214 173.347 61.393 173.347 61.1349C173.347 60.8769 173.296 60.6496 173.194 60.4531C173.095 60.2566 172.94 60.1039 172.729 59.995C172.521 59.8838 172.252 59.8281 171.923 59.8281H170.716V66H169.398ZM186.048 66H184.642L187.202 58.7273H188.829L191.393 66H189.986L188.044 60.2188H187.987L186.048 66ZM186.094 63.1484H189.93V64.2067H186.094V63.1484ZM195.751 66V58.7273H197.068V61.8061H200.438V58.7273H201.759V66H200.438V62.9105H197.068V66H195.751ZM206.592 66V58.7273H211.322V59.8317H207.909V61.8061H211.077V62.9105H207.909V64.8956H211.35V66H206.592ZM217 66H215.594L218.154 58.7273H219.781L222.345 66H220.938L218.996 60.2188H218.939L217 66ZM217.046 63.1484H220.882V64.2067H217.046V63.1484ZM229.167 66H226.702V58.7273H229.217C229.939 58.7273 230.559 58.8729 231.077 59.1641C231.598 59.4529 231.998 59.8684 232.278 60.4105C232.557 60.9527 232.697 61.6013 232.697 62.3565C232.697 63.1141 232.556 63.7652 232.274 64.3097C231.995 64.8542 231.591 65.272 231.063 65.5632C230.538 65.8544 229.906 66 229.167 66ZM228.02 64.8601H229.103C229.61 64.8601 230.032 64.7678 230.371 64.5831C230.709 64.3961 230.964 64.1179 231.134 63.7486C231.305 63.3769 231.39 62.9129 231.39 62.3565C231.39 61.8002 231.305 61.3385 231.134 60.9716C230.964 60.6023 230.712 60.3265 230.378 60.1442C230.046 59.9595 229.635 59.8672 229.142 59.8672H228.02V64.8601Z" fill="white"/>
<path d="M108.776 64.3771L108.333 64.1446L108.333 64.1453L108.776 64.3771ZM107.582 65.6555L107.329 65.2243L107.328 65.2248L107.582 65.6555ZM104.163 65.6555L103.907 66.0854L103.91 66.0868L104.163 65.6555ZM102.969 64.3736L102.526 64.6047L102.527 64.6069L102.969 64.3736ZM102.969 60.3537L102.527 60.1211L102.526 60.1218L102.969 60.3537ZM104.163 59.0717L103.91 58.6405L103.909 58.641L104.163 59.0717ZM107.582 59.0717L107.328 59.5024L107.329 59.503L107.582 59.0717ZM108.776 60.3537L108.332 60.5848L108.333 60.587L108.776 60.3537ZM107.632 60.968L107.176 61.1722L107.177 61.1756L107.632 60.968ZM106.922 60.1051L106.65 60.5246L106.652 60.5261L106.922 60.1051ZM104.827 60.1051L105.096 60.5261L105.099 60.5246L104.827 60.1051ZM104.113 60.968L103.658 60.7616L103.657 60.7629L104.113 60.968ZM104.113 63.7628L103.656 63.9669L103.658 63.9703L104.113 63.7628ZM104.827 64.6257L104.555 65.0452L104.557 65.0467L104.827 64.6257ZM106.922 64.6257L107.192 65.0467L107.194 65.0452L106.922 64.6257ZM107.632 63.7628L107.177 63.5563L107.176 63.5576L107.632 63.7628ZM108.716 62.3636C108.716 63.0855 108.581 63.6729 108.333 64.1446L109.218 64.6097C109.557 63.964 109.716 63.209 109.716 62.3636H108.716ZM108.333 64.1453C108.081 64.6251 107.747 64.9793 107.329 65.2243L107.835 66.0868C108.426 65.7399 108.887 65.2419 109.219 64.609L108.333 64.1453ZM107.328 65.2248C106.911 65.4712 106.43 65.5994 105.874 65.5994V66.5994C106.592 66.5994 107.25 66.4317 107.836 66.0862L107.328 65.2248ZM105.874 65.5994C105.318 65.5994 104.836 65.4712 104.416 65.2243L103.91 66.0868C104.497 66.4317 105.157 66.5994 105.874 66.5994V65.5994ZM104.418 65.2257C104.001 64.9781 103.666 64.6217 103.412 64.1402L102.527 64.6069C102.86 65.2382 103.32 65.7364 103.907 66.0854L104.418 65.2257ZM103.413 64.1425C103.167 63.6702 103.033 63.0834 103.033 62.3636H102.033C102.033 63.2064 102.19 63.9595 102.526 64.6047L103.413 64.1425ZM103.033 62.3636C103.033 61.6411 103.167 61.0548 103.412 60.5856L102.526 60.1218C102.19 60.7653 102.033 61.5189 102.033 62.3636H103.033ZM103.412 60.5863C103.666 60.1027 104.001 59.7472 104.417 59.5024L103.909 58.641C103.32 58.9881 102.86 59.4872 102.527 60.1211L103.412 60.5863ZM104.416 59.503C104.836 59.256 105.318 59.1278 105.874 59.1278V58.1278C105.157 58.1278 104.497 58.2956 103.91 58.6405L104.416 59.503ZM105.874 59.1278C106.43 59.1278 106.911 59.256 107.328 59.5024L107.836 58.641C107.25 58.2956 106.592 58.1278 105.874 58.1278V59.1278ZM107.329 59.503C107.746 59.7477 108.081 60.1026 108.332 60.5848L109.219 60.1226C108.888 59.4874 108.427 58.9877 107.835 58.6405L107.329 59.503ZM108.333 60.587C108.581 61.0559 108.716 61.6417 108.716 62.3636H109.716C109.716 61.5183 109.558 60.7642 109.218 60.1204L108.333 60.587ZM108.391 62.3636C108.391 61.7626 108.298 61.222 108.087 60.7605L107.177 61.1756C107.312 61.4717 107.391 61.8615 107.391 62.3636H108.391ZM108.089 60.7639C107.885 60.3084 107.589 59.9388 107.192 59.6841L106.652 60.5261C106.861 60.6597 107.038 60.8654 107.176 61.1722L108.089 60.7639ZM107.194 59.6856C106.802 59.4316 106.357 59.3104 105.874 59.3104V60.3104C106.183 60.3104 106.435 60.3856 106.65 60.5246L107.194 59.6856ZM105.874 59.3104C105.392 59.3104 104.946 59.4316 104.555 59.6856L105.099 60.5246C105.313 60.3856 105.566 60.3104 105.874 60.3104V59.3104ZM104.557 59.6841C104.16 59.9384 103.864 60.3071 103.658 60.7616L104.568 61.1745C104.708 60.8667 104.887 60.6601 105.096 60.5261L104.557 59.6841ZM103.657 60.7629C103.45 61.2236 103.357 61.7633 103.357 62.3636H104.357C104.357 61.8607 104.435 61.47 104.569 61.1732L103.657 60.7629ZM103.357 62.3636C103.357 62.9641 103.45 63.5044 103.656 63.9669L104.569 63.5587C104.435 63.2588 104.357 62.8664 104.357 62.3636H103.357ZM103.658 63.9703C103.864 64.4222 104.16 64.7894 104.555 65.0452L105.099 64.2062C104.887 64.069 104.707 63.8609 104.568 63.5552L103.658 63.9703ZM104.557 65.0467C104.948 65.2975 105.393 65.4169 105.874 65.4169V64.4169C105.565 64.4169 105.311 64.3422 105.096 64.2047L104.557 65.0467ZM105.874 65.4169C106.355 65.4169 106.8 65.2975 107.192 65.0467L106.652 64.2047C106.437 64.3422 106.184 64.4169 105.874 64.4169V65.4169ZM107.194 65.0452C107.589 64.789 107.884 64.4209 108.088 63.968L107.176 63.5576C107.039 63.8622 106.861 64.0695 106.65 64.2062L107.194 65.0452ZM108.087 63.9693C108.297 63.5061 108.391 62.9649 108.391 62.3636H107.391C107.391 62.8656 107.312 63.2572 107.177 63.5563L108.087 63.9693ZM119.838 58.7273H120.338V58.2273H119.838V58.7273ZM119.838 66V66.5H120.338V66H119.838ZM118.666 66L118.255 66.2845L118.404 66.5H118.666V66ZM115.239 61.0462L115.651 60.7617L115.501 60.5462H115.239V61.0462ZM115.179 61.0462V60.5462H114.679V61.0462H115.179ZM115.179 66V66.5H115.679V66H115.179ZM113.861 66H113.361V66.5H113.861V66ZM113.861 58.7273V58.2273H113.361V58.7273H113.861ZM115.04 58.7273L115.452 58.4432L115.303 58.2273H115.04V58.7273ZM118.464 63.6847L118.052 63.9688L118.201 64.1847H118.464V63.6847ZM118.528 63.6847V64.1847H119.028V63.6847H118.528ZM118.528 58.7273V58.2273H118.028V58.7273H118.528ZM119.338 58.7273V66H120.338V58.7273H119.338ZM119.838 65.5H118.666V66.5H119.838V65.5ZM119.077 65.7155L115.651 60.7617L114.828 61.3306L118.255 66.2845L119.077 65.7155ZM115.239 60.5462H115.179V61.5462H115.239V60.5462ZM114.679 61.0462V66H115.679V61.0462H114.679ZM115.179 65.5H113.861V66.5H115.179V65.5ZM114.361 66V58.7273H113.361V66H114.361ZM113.861 59.2273H115.04V58.2273H113.861V59.2273ZM114.629 59.0114L118.052 63.9688L118.875 63.4005L115.452 58.4432L114.629 59.0114ZM118.464 64.1847H118.528V63.1847H118.464V64.1847ZM119.028 63.6847V58.7273H118.028V63.6847H119.028ZM118.528 59.2273H119.838V58.2273H118.528V59.2273ZM124.674 66H124.174V66.5H124.674V66ZM124.674 58.7273V58.2273H124.174V58.7273H124.674ZM129.404 58.7273H129.904V58.2273H129.404V58.7273ZM129.404 59.8317V60.3317H129.904V59.8317H129.404ZM125.991 59.8317V59.3317H125.491V59.8317H125.991ZM125.991 61.8061H125.491V62.3061H125.991V61.8061ZM129.159 61.8061H129.659V61.3061H129.159V61.8061ZM129.159 62.9105V63.4105H129.659V62.9105H129.159ZM125.991 62.9105V62.4105H125.491V62.9105H125.991ZM125.991 64.8956H125.491V65.3956H125.991V64.8956ZM129.432 64.8956H129.932V64.3956H129.432V64.8956ZM129.432 66V66.5H129.932V66H129.432ZM125.174 66V58.7273H124.174V66H125.174ZM124.674 59.2273H129.404V58.2273H124.674V59.2273ZM128.904 58.7273V59.8317H129.904V58.7273H128.904ZM129.404 59.3317H125.991V60.3317H129.404V59.3317ZM125.491 59.8317V61.8061H126.491V59.8317H125.491ZM125.991 62.3061H129.159V61.3061H125.991V62.3061ZM128.659 61.8061V62.9105H129.659V61.8061H128.659ZM129.159 62.4105H125.991V63.4105H129.159V62.4105ZM125.491 62.9105V64.8956H126.491V62.9105H125.491ZM125.991 65.3956H129.432V64.3956H125.991V65.3956ZM128.932 64.8956V66H129.932V64.8956H128.932ZM129.432 65.5H124.674V66.5H129.432V65.5ZM143.981 60.7266L143.484 60.7797L143.531 61.2266H143.981V60.7266ZM143.562 60.0021L143.273 60.4101L143.274 60.4114L143.562 60.0021ZM141.903 59.8672L142.098 60.3279L142.098 60.3279L141.903 59.8672ZM141.452 60.2045L141.049 59.9089L141.049 59.9089L141.452 60.2045ZM141.292 60.6911L140.792 60.6846V60.6911H141.292ZM141.395 61.0852L140.97 61.3478L140.974 61.3542L141.395 61.0852ZM141.683 61.3693L141.411 61.7891L141.417 61.7929L141.683 61.3693ZM142.084 61.5611L141.917 62.0323L141.917 62.0323L142.084 61.5611ZM142.528 61.6925L142.65 61.2074L142.644 61.2061L142.528 61.6925ZM143.21 61.8629L143.089 62.3481L143.097 62.3499L143.21 61.8629ZM144.002 62.1222L143.805 62.5815L143.806 62.5822L144.002 62.1222ZM144.687 62.5341L144.369 62.9201L144.372 62.9219L144.687 62.5341ZM145.021 65.0838L145.435 65.364L145.436 65.3626L145.021 65.0838ZM144.077 65.8402L144.278 66.298L144.279 66.2974L144.077 65.8402ZM141.115 65.8473L140.92 66.3078L140.921 66.3082L141.115 65.8473ZM140.142 65.0803L139.73 65.3643L139.732 65.3662L140.142 65.0803ZM139.765 63.8516V63.3516H139.245L139.266 63.8712L139.765 63.8516ZM141.062 63.8516L141.56 63.8143L141.526 63.3516H141.062V63.8516ZM141.296 64.4837L141.683 64.1673L141.683 64.1673L141.296 64.4837ZM141.832 64.8601L141.656 65.328L141.658 65.3287L141.832 64.8601ZM143.331 64.8565L143.515 65.3215L143.517 65.3204L143.331 64.8565ZM143.842 64.4943L144.233 64.8067L144.235 64.8038L143.842 64.4943ZM144.03 63.9474L144.531 63.9531L144.53 63.9412L144.03 63.9474ZM143.863 63.4787L143.486 63.8064L143.489 63.81L143.863 63.4787ZM143.405 63.1662L143.204 63.6241L143.211 63.6269L143.405 63.1662ZM142.724 62.9389L142.599 63.4231L142.6 63.4235L142.724 62.9389ZM141.896 62.7259L142.021 62.2416L142.021 62.2416L141.896 62.7259ZM140.476 62.0263L140.139 62.3959L140.142 62.3983L140.476 62.0263ZM140.305 59.647L139.901 59.3528L139.9 59.3547L140.305 59.647ZM141.261 58.8977L141.462 59.3552L141.465 59.3542L141.261 58.8977ZM143.984 58.8977L143.774 59.3514L143.777 59.3529L143.984 58.8977ZM144.904 59.6399L144.495 59.9271L144.496 59.9285L144.904 59.6399ZM145.248 60.7266V61.2266H145.757L145.748 60.7179L145.248 60.7266ZM144.478 60.6734C144.43 60.2259 144.218 59.852 143.849 59.5929L143.274 60.4114C143.398 60.4979 143.465 60.607 143.484 60.7797L144.478 60.6734ZM143.851 59.5942C143.5 59.3455 143.073 59.2429 142.61 59.2429V60.2429C142.929 60.2429 143.136 60.3131 143.273 60.4101L143.851 59.5942ZM142.61 59.2429C142.287 59.2429 141.982 59.2914 141.709 59.4065L142.098 60.3279C142.218 60.2773 142.384 60.2429 142.61 60.2429V59.2429ZM141.709 59.4065C141.447 59.517 141.217 59.68 141.049 59.9089L141.855 60.5002C141.896 60.445 141.967 60.3831 142.098 60.3279L141.709 59.4065ZM141.049 59.9089C140.881 60.138 140.796 60.402 140.793 60.6846L141.792 60.6975C141.793 60.6155 141.815 60.5552 141.855 60.5002L141.049 59.9089ZM140.792 60.6911C140.792 60.9203 140.845 61.1457 140.97 61.3478L141.821 60.8227C141.808 60.8022 141.792 60.7648 141.792 60.6911H140.792ZM140.974 61.3542C141.087 61.5312 141.236 61.6756 141.411 61.7891L141.955 60.9495C141.889 60.9068 141.846 60.8618 141.817 60.8162L140.974 61.3542ZM141.417 61.7929C141.572 61.8898 141.739 61.9691 141.917 62.0323L142.252 61.0899C142.136 61.0489 142.036 61.0004 141.949 60.9458L141.417 61.7929ZM141.917 62.0323C142.081 62.0903 142.246 62.1392 142.412 62.1789L142.644 61.2061C142.513 61.1748 142.382 61.1361 142.252 61.0899L141.917 62.0323ZM142.407 62.1775L143.089 62.348L143.331 61.3779L142.65 61.2074L142.407 62.1775ZM143.097 62.3499C143.343 62.4073 143.579 62.4845 143.805 62.5815L144.199 61.6628C143.918 61.542 143.626 61.4464 143.323 61.3759L143.097 62.3499ZM143.806 62.5822C144.021 62.6736 144.208 62.7867 144.37 62.9201L145.005 62.1481C144.765 61.9501 144.495 61.7885 144.198 61.6621L143.806 62.5822ZM144.372 62.9219C144.521 63.0432 144.637 63.188 144.724 63.3596L145.617 62.9088C145.467 62.6118 145.261 62.3564 145.003 62.1463L144.372 62.9219ZM144.724 63.3596C144.801 63.5115 144.848 63.7061 144.848 63.9581H145.848C145.848 63.5804 145.777 63.2257 145.617 62.9088L144.724 63.3596ZM144.848 63.9581C144.848 64.2944 144.764 64.5706 144.606 64.8051L145.436 65.3626C145.714 64.9483 145.848 64.4741 145.848 63.9581H144.848ZM144.607 64.8037C144.45 65.0362 144.214 65.2325 143.874 65.383L144.279 66.2974C144.763 66.0833 145.157 65.7754 145.435 65.364L144.607 64.8037ZM143.875 65.3824C143.545 65.5275 143.122 65.6101 142.589 65.6101V66.6101C143.22 66.6101 143.789 66.5128 144.278 66.298L143.875 65.3824ZM142.589 65.6101C142.073 65.6101 141.651 65.5302 141.309 65.3864L140.921 66.3082C141.412 66.5148 141.972 66.6101 142.589 66.6101V65.6101ZM141.31 65.3868C140.973 65.2446 140.727 65.0457 140.552 64.7943L139.732 65.3662C140.025 65.7872 140.428 66.0996 140.92 66.3078L141.31 65.3868ZM140.553 64.7963C140.384 64.5514 140.281 64.2378 140.265 63.832L139.266 63.8712C139.288 64.4312 139.435 64.9367 139.73 65.3643L140.553 64.7963ZM139.765 64.3516H141.062V63.3516H139.765V64.3516ZM140.563 63.8888C140.588 64.2265 140.696 64.5396 140.909 64.8L141.683 64.1673C141.621 64.0915 141.573 63.9833 141.56 63.8143L140.563 63.8888ZM140.909 64.8C141.107 65.042 141.361 65.2168 141.656 65.328L142.008 64.3921C141.864 64.3376 141.76 64.2615 141.683 64.1673L140.909 64.8ZM141.658 65.3287C141.944 65.4353 142.253 65.4844 142.578 65.4844V64.4844C142.354 64.4844 142.165 64.4506 142.007 64.3915L141.658 65.3287ZM142.578 65.4844C142.913 65.4844 143.229 65.4346 143.515 65.3215L143.147 64.3916C143.002 64.4489 142.816 64.4844 142.578 64.4844V65.4844ZM143.517 65.3204C143.8 65.2069 144.046 65.0396 144.233 64.8067L143.452 64.182C143.392 64.2568 143.297 64.331 143.144 64.3926L143.517 65.3204ZM144.235 64.8038C144.43 64.5565 144.527 64.2662 144.53 63.9531L143.53 63.9418C143.529 64.0454 143.501 64.1196 143.449 64.1849L144.235 64.8038ZM144.53 63.9412C144.527 63.6513 144.438 63.3738 144.238 63.1474L143.489 63.81C143.506 63.8298 143.529 63.8648 143.53 63.9537L144.53 63.9412ZM144.241 63.151C144.07 62.9537 143.847 62.8099 143.6 62.7055L143.211 63.6269C143.356 63.6882 143.439 63.7527 143.486 63.8064L144.241 63.151ZM143.606 62.7084C143.382 62.6097 143.127 62.5257 142.847 62.4544L142.6 63.4235C142.841 63.4847 143.041 63.5523 143.204 63.624L143.606 62.7084ZM142.848 62.4547L142.021 62.2416L141.771 63.2101L142.599 63.4231L142.848 62.4547ZM142.021 62.2416C141.475 62.1015 141.082 61.8985 140.81 61.6543L140.142 62.3983C140.566 62.779 141.119 63.0424 141.772 63.2101L142.021 62.2416ZM140.812 61.6567C140.583 61.4479 140.457 61.1707 140.457 60.7727H139.457C139.457 61.4164 139.677 61.9749 140.139 62.3959L140.812 61.6567ZM140.457 60.7727C140.457 60.4403 140.545 60.1693 140.711 59.9393L139.9 59.3547C139.601 59.7687 139.457 60.2481 139.457 60.7727H140.457ZM140.709 59.9413C140.887 59.6979 141.132 59.501 141.462 59.3552L141.059 58.4403C140.584 58.6496 140.193 58.9522 139.901 59.3528L140.709 59.9413ZM141.465 59.3542C141.794 59.2071 142.178 59.1278 142.628 59.1278V58.1278C142.059 58.1278 141.532 58.2285 141.056 58.4413L141.465 59.3542ZM142.628 59.1278C143.086 59.1278 143.464 59.2076 143.774 59.3514L144.194 58.4441C143.728 58.228 143.202 58.1278 142.628 58.1278V59.1278ZM143.777 59.3529C144.096 59.4976 144.329 59.6906 144.495 59.9271L145.313 59.3528C145.034 58.9548 144.654 58.653 144.191 58.4425L143.777 59.3529ZM144.496 59.9285C144.657 60.1561 144.743 60.4195 144.749 60.7352L145.748 60.7179C145.74 60.2145 145.596 59.7534 145.312 59.3513L144.496 59.9285ZM145.248 60.2266H143.981V61.2266H145.248V60.2266ZM149.603 59.8317H149.103V60.3317H149.603V59.8317ZM149.603 58.7273V58.2273H149.103V58.7273H149.603ZM155.405 58.7273H155.905V58.2273H155.405V58.7273ZM155.405 59.8317V60.3317H155.905V59.8317H155.405ZM153.157 59.8317V59.3317H152.657V59.8317H153.157ZM153.157 66V66.5H153.657V66H153.157ZM151.851 66H151.351V66.5H151.851V66ZM151.851 59.8317H152.351V59.3317H151.851V59.8317ZM150.103 59.8317V58.7273H149.103V59.8317H150.103ZM149.603 59.2273H155.405V58.2273H149.603V59.2273ZM154.905 58.7273V59.8317H155.905V58.7273H154.905ZM155.405 59.3317H153.157V60.3317H155.405V59.3317ZM152.657 59.8317V66H153.657V59.8317H152.657ZM153.157 65.5H151.851V66.5H153.157V65.5ZM152.351 66V59.8317H151.351V66H152.351ZM151.851 59.3317H149.603V60.3317H151.851V59.3317ZM159.924 66H159.424V66.5H159.924V66ZM159.924 58.7273V58.2273H159.424V58.7273H159.924ZM164.654 58.7273H165.154V58.2273H164.654V58.7273ZM164.654 59.8317V60.3317H165.154V59.8317H164.654ZM161.241 59.8317V59.3317H160.741V59.8317H161.241ZM161.241 61.8061H160.741V62.3061H161.241V61.8061ZM164.409 61.8061H164.909V61.3061H164.409V61.8061ZM164.409 62.9105V63.4105H164.909V62.9105H164.409ZM161.241 62.9105V62.4105H160.741V62.9105H161.241ZM161.241 64.8956H160.741V65.3956H161.241V64.8956ZM164.682 64.8956H165.182V64.3956H164.682V64.8956ZM164.682 66V66.5H165.182V66H164.682ZM160.424 66V58.7273H159.424V66H160.424ZM159.924 59.2273H164.654V58.2273H159.924V59.2273ZM164.154 58.7273V59.8317H165.154V58.7273H164.154ZM164.654 59.3317H161.241V60.3317H164.654V59.3317ZM160.741 59.8317V61.8061H161.741V59.8317H160.741ZM161.241 62.3061H164.409V61.3061H161.241V62.3061ZM163.909 61.8061V62.9105H164.909V61.8061H163.909ZM164.409 62.4105H161.241V63.4105H164.409V62.4105ZM160.741 62.9105V64.8956H161.741V62.9105H160.741ZM161.241 65.3956H164.682V64.3956H161.241V65.3956ZM164.182 64.8956V66H165.182V64.8956H164.182ZM164.682 65.5H159.924V66.5H164.682V65.5ZM169.398 66H168.898V66.5H169.398V66ZM169.398 58.7273V58.2273H168.898V58.7273H169.398ZM173.532 59.0398L173.291 59.4779L173.292 59.4785L173.532 59.0398ZM174.395 59.8991L173.953 60.1342L173.955 60.1376L174.395 59.8991ZM174.395 62.3778L174.834 62.6163L174.834 62.6163L174.395 62.3778ZM173.525 63.2337L173.761 63.6742L173.763 63.673L173.525 63.2337ZM170.3 63.5426H169.8V64.0426H170.3V63.5426ZM170.3 62.4595V61.9595H169.8V62.4595H170.3ZM172.733 62.2891L172.972 62.728L172.972 62.728L172.733 62.2891ZM173.194 61.8203L172.749 61.5925L172.747 61.5967L173.194 61.8203ZM173.194 60.4531L172.748 60.6789L172.75 60.6831L173.194 60.4531ZM172.729 59.995L172.494 60.4361L172.5 60.4392L172.729 59.995ZM170.716 59.8281V59.3281H170.216V59.8281H170.716ZM170.716 66V66.5H171.216V66H170.716ZM169.898 66V58.7273H168.898V66H169.898ZM169.398 59.2273H172.125V58.2273H169.398V59.2273ZM172.125 59.2273C172.624 59.2273 173.004 59.3203 173.291 59.4779L173.773 58.6017C173.302 58.3426 172.744 58.2273 172.125 58.2273V59.2273ZM173.292 59.4785C173.592 59.6426 173.807 59.8602 173.953 60.1341L174.836 59.6642C174.594 59.2089 174.234 58.8536 173.772 58.601L173.292 59.4785ZM173.955 60.1376C174.107 60.4181 174.189 60.7464 174.189 61.1349H175.189C175.189 60.6002 175.075 60.1046 174.834 59.6607L173.955 60.1376ZM174.189 61.1349C174.189 61.5292 174.107 61.8596 173.955 62.1394L174.834 62.6163C175.075 62.1717 175.189 61.6735 175.189 61.1349H174.189ZM173.955 62.1394C173.808 62.4115 173.59 62.6293 173.286 62.7943L173.763 63.673C174.226 63.4214 174.589 63.0686 174.834 62.6163L173.955 62.1394ZM173.288 62.7932C172.995 62.9504 172.609 63.0426 172.108 63.0426V64.0426C172.728 64.0426 173.287 63.9289 173.761 63.6742L173.288 62.7932ZM172.108 63.0426H170.3V64.0426H172.108V63.0426ZM170.8 63.5426V62.4595H169.8V63.5426H170.8ZM170.3 62.9595H171.93V61.9595H170.3V62.9595ZM171.93 62.9595C172.311 62.9595 172.668 62.894 172.972 62.728L172.493 61.8501C172.381 61.9114 172.203 61.9595 171.93 61.9595V62.9595ZM172.972 62.728C173.264 62.569 173.493 62.3404 173.642 62.0439L172.747 61.5967C172.697 61.698 172.618 61.7819 172.493 61.8501L172.972 62.728ZM173.639 62.0481C173.783 61.7686 173.847 61.4599 173.847 61.1349H172.847C172.847 61.3261 172.81 61.4743 172.749 61.5925L173.639 62.0481ZM173.847 61.1349C173.847 60.8102 173.783 60.5016 173.638 60.2231L172.75 60.6831C172.81 60.7976 172.847 60.9436 172.847 61.1349H173.847ZM173.64 60.2274C173.49 59.9298 173.255 59.7041 172.959 59.5508L172.5 60.4392C172.625 60.5038 172.7 60.5835 172.748 60.6789L173.64 60.2274ZM172.965 59.554C172.661 59.3918 172.304 59.3281 171.923 59.3281V60.3281C172.201 60.3281 172.381 60.3757 172.494 60.4361L172.965 59.554ZM171.923 59.3281H170.716V60.3281H171.923V59.3281ZM170.216 59.8281V66H171.216V59.8281H170.216ZM170.716 65.5H169.398V66.5H170.716V65.5ZM186.048 66V66.5H186.408L186.522 66.159L186.048 66ZM184.642 66L184.17 65.834L183.936 66.5H184.642V66ZM187.202 58.7273V58.2273H186.848L186.731 58.5612L187.202 58.7273ZM188.829 58.7273L189.3 58.561L189.183 58.2273H188.829V58.7273ZM191.393 66V66.5H192.099L191.864 65.8338L191.393 66ZM189.986 66L189.512 66.1592L189.627 66.5H189.986V66ZM188.044 60.2188L188.518 60.0595L188.403 59.7188H188.044V60.2188ZM187.987 60.2188V59.7188H187.627L187.513 60.0598L187.987 60.2188ZM186.094 63.1484V62.6484H185.594V63.1484H186.094ZM189.93 63.1484H190.43V62.6484H189.93V63.1484ZM189.93 64.2067V64.7067H190.43V64.2067H189.93ZM186.094 64.2067H185.594V64.7067H186.094V64.2067ZM186.048 65.5H184.642V66.5H186.048V65.5ZM185.114 66.166L187.674 58.8933L186.731 58.5612L184.17 65.834L185.114 66.166ZM187.202 59.2273H188.829V58.2273H187.202V59.2273ZM188.357 58.8935L190.921 66.1662L191.864 65.8338L189.3 58.561L188.357 58.8935ZM191.393 65.5H189.986V66.5H191.393V65.5ZM190.46 65.8408L188.518 60.0595L187.57 60.378L189.512 66.1592L190.46 65.8408ZM188.044 59.7188H187.987V60.7188H188.044V59.7188ZM187.513 60.0598L185.574 65.841L186.522 66.159L188.461 60.3777L187.513 60.0598ZM186.094 63.6484H189.93V62.6484H186.094V63.6484ZM189.43 63.1484V64.2067H190.43V63.1484H189.43ZM189.93 63.7067H186.094V64.7067H189.93V63.7067ZM186.594 64.2067V63.1484H185.594V64.2067H186.594ZM195.751 66H195.251V66.5H195.751V66ZM195.751 58.7273V58.2273H195.251V58.7273H195.751ZM197.068 58.7273H197.568V58.2273H197.068V58.7273ZM197.068 61.8061H196.568V62.3061H197.068V61.8061ZM200.438 61.8061V62.3061H200.938V61.8061H200.438ZM200.438 58.7273V58.2273H199.938V58.7273H200.438ZM201.759 58.7273H202.259V58.2273H201.759V58.7273ZM201.759 66V66.5H202.259V66H201.759ZM200.438 66H199.938V66.5H200.438V66ZM200.438 62.9105H200.938V62.4105H200.438V62.9105ZM197.068 62.9105V62.4105H196.568V62.9105H197.068ZM197.068 66V66.5H197.568V66H197.068ZM196.251 66V58.7273H195.251V66H196.251ZM195.751 59.2273H197.068V58.2273H195.751V59.2273ZM196.568 58.7273V61.8061H197.568V58.7273H196.568ZM197.068 62.3061H200.438V61.3061H197.068V62.3061ZM200.938 61.8061V58.7273H199.938V61.8061H200.938ZM200.438 59.2273H201.759V58.2273H200.438V59.2273ZM201.259 58.7273V66H202.259V58.7273H201.259ZM201.759 65.5H200.438V66.5H201.759V65.5ZM200.938 66V62.9105H199.938V66H200.938ZM200.438 62.4105H197.068V63.4105H200.438V62.4105ZM196.568 62.9105V66H197.568V62.9105H196.568ZM197.068 65.5H195.751V66.5H197.068V65.5ZM206.592 66H206.092V66.5H206.592V66ZM206.592 58.7273V58.2273H206.092V58.7273H206.592ZM211.322 58.7273H211.822V58.2273H211.322V58.7273ZM211.322 59.8317V60.3317H211.822V59.8317H211.322ZM207.909 59.8317V59.3317H207.409V59.8317H207.909ZM207.909 61.8061H207.409V62.3061H207.909V61.8061ZM211.077 61.8061H211.577V61.3061H211.077V61.8061ZM211.077 62.9105V63.4105H211.577V62.9105H211.077ZM207.909 62.9105V62.4105H207.409V62.9105H207.909ZM207.909 64.8956H207.409V65.3956H207.909V64.8956ZM211.35 64.8956H211.85V64.3956H211.35V64.8956ZM211.35 66V66.5H211.85V66H211.35ZM207.092 66V58.7273H206.092V66H207.092ZM206.592 59.2273H211.322V58.2273H206.592V59.2273ZM210.822 58.7273V59.8317H211.822V58.7273H210.822ZM211.322 59.3317H207.909V60.3317H211.322V59.3317ZM207.409 59.8317V61.8061H208.409V59.8317H207.409ZM207.909 62.3061H211.077V61.3061H207.909V62.3061ZM210.577 61.8061V62.9105H211.577V61.8061H210.577ZM211.077 62.4105H207.909V63.4105H211.077V62.4105ZM207.409 62.9105V64.8956H208.409V62.9105H207.409ZM207.909 65.3956H211.35V64.3956H207.909V65.3956ZM210.85 64.8956V66H211.85V64.8956H210.85ZM211.35 65.5H206.592V66.5H211.35V65.5ZM217 66V66.5H217.36L217.474 66.159L217 66ZM215.594 66L215.122 65.834L214.888 66.5H215.594V66ZM218.154 58.7273V58.2273H217.8L217.683 58.5612L218.154 58.7273ZM219.781 58.7273L220.252 58.561L220.135 58.2273H219.781V58.7273ZM222.345 66V66.5H223.051L222.816 65.8338L222.345 66ZM220.938 66L220.464 66.1592L220.579 66.5H220.938V66ZM218.996 60.2188L219.47 60.0595L219.355 59.7188H218.996V60.2188ZM218.939 60.2188V59.7188H218.579L218.465 60.0598L218.939 60.2188ZM217.046 63.1484V62.6484H216.546V63.1484H217.046ZM220.882 63.1484H221.382V62.6484H220.882V63.1484ZM220.882 64.2067V64.7067H221.382V64.2067H220.882ZM217.046 64.2067H216.546V64.7067H217.046V64.2067ZM217 65.5H215.594V66.5H217V65.5ZM216.065 66.166L218.626 58.8933L217.683 58.5612L215.122 65.834L216.065 66.166ZM218.154 59.2273H219.781V58.2273H218.154V59.2273ZM219.309 58.8935L221.873 66.1662L222.816 65.8338L220.252 58.561L219.309 58.8935ZM222.345 65.5H220.938V66.5H222.345V65.5ZM221.412 65.8408L219.47 60.0595L218.522 60.378L220.464 66.1592L221.412 65.8408ZM218.996 59.7188H218.939V60.7188H218.996V59.7188ZM218.465 60.0598L216.526 65.841L217.474 66.159L219.413 60.3777L218.465 60.0598ZM217.046 63.6484H220.882V62.6484H217.046V63.6484ZM220.382 63.1484V64.2067H221.382V63.1484H220.382ZM220.882 63.7067H217.046V64.7067H220.882V63.7067ZM217.546 64.2067V63.1484H216.546V64.2067H217.546ZM226.702 66H226.202V66.5H226.702V66ZM226.702 58.7273V58.2273H226.202V58.7273H226.702ZM231.077 59.1641L230.833 59.6L230.835 59.6013L231.077 59.1641ZM232.278 60.4105L231.833 60.6395L231.833 60.6395L232.278 60.4105ZM232.274 64.3097L231.83 64.0799L231.829 64.0814L232.274 64.3097ZM231.063 65.5632L230.822 65.1254L230.821 65.1259L231.063 65.5632ZM228.02 64.8601H227.52V65.3601H228.02V64.8601ZM230.371 64.5831L230.61 65.0221L230.613 65.0208L230.371 64.5831ZM231.134 63.7486L231.588 63.9581L231.589 63.957L231.134 63.7486ZM231.134 60.9716L230.68 61.1811L230.681 61.1822L231.134 60.9716ZM230.378 60.1442L230.135 60.581L230.138 60.583L230.378 60.1442ZM228.02 59.8672V59.3672H227.52V59.8672H228.02ZM229.167 65.5H226.702V66.5H229.167V65.5ZM227.202 66V58.7273H226.202V66H227.202ZM226.702 59.2273H229.217V58.2273H226.702V59.2273ZM229.217 59.2273C229.871 59.2273 230.403 59.3589 230.833 59.6L231.322 58.7281C230.715 58.3868 230.006 58.2273 229.217 58.2273V59.2273ZM230.835 59.6013C231.267 59.841 231.598 60.183 231.833 60.6395L232.722 60.1815C232.399 59.5537 231.929 59.0648 231.32 58.7268L230.835 59.6013ZM231.833 60.6395C232.068 61.096 232.197 61.6624 232.197 62.3565H233.197C233.197 61.5403 233.046 60.8094 232.722 60.1815L231.833 60.6395ZM232.197 62.3565C232.197 63.0527 232.067 63.6212 231.83 64.0799L232.718 64.5394C233.044 63.9091 233.197 63.1755 233.197 62.3565H232.197ZM231.829 64.0814C231.595 64.5388 231.261 64.883 230.822 65.1254L231.305 66.001C231.921 65.661 232.395 65.1695 232.719 64.5379L231.829 64.0814ZM230.821 65.1259C230.385 65.3675 229.84 65.5 229.167 65.5V66.5C229.971 66.5 230.691 66.3413 231.306 66.0006L230.821 65.1259ZM228.02 65.3601H229.103V64.3601H228.02V65.3601ZM229.103 65.3601C229.668 65.3601 230.179 65.2574 230.61 65.022L230.131 64.1441C229.886 64.2781 229.551 64.3601 229.103 64.3601V65.3601ZM230.613 65.0208C231.049 64.7795 231.376 64.4188 231.588 63.9581L230.68 63.5391C230.552 63.817 230.369 64.0127 230.129 64.1454L230.613 65.0208ZM231.589 63.957C231.798 63.5008 231.89 62.9603 231.89 62.3565H230.89C230.89 62.8654 230.812 63.253 230.68 63.5402L231.589 63.957ZM231.89 62.3565C231.89 61.7531 231.798 61.2138 231.588 60.7609L230.681 61.1822C230.811 61.4633 230.89 61.8473 230.89 62.3565H231.89ZM231.588 60.7621C231.376 60.3025 231.052 59.9428 230.618 59.7053L230.138 60.583C230.371 60.7102 230.552 60.9021 230.68 61.1811L231.588 60.7621ZM230.621 59.7074C230.196 59.4707 229.695 59.3672 229.142 59.3672V60.3672C229.574 60.3672 229.896 60.4483 230.135 60.581L230.621 59.7074ZM229.142 59.3672H228.02V60.3672H229.142V59.3672ZM227.52 59.8672V64.8601H228.52V59.8672H227.52Z" fill="#2A2D82" fill-opacity="0.73" mask="url(#path-10-outside-1_108_1625)"/>
<defs>
<filter id="filter0_dd_108_1625" x="92.0964" y="53.3133" width="158.217" height="18.5301" filterUnits="userSpaceOnUse" color-interpolation-filters="sRGB">
<feFlood flood-opacity="0" result="BackgroundImageFix"/>
<feColorMatrix in="SourceAlpha" type="matrix" values="0 0 0 0 0 0 0 0 0 0 0 0 0 0 0 0 0 0 127 0" result="hardAlpha"/>
<feOffset dy="1"/>
<feComposite in2="hardAlpha" operator="out"/>
<feColorMatrix type="matrix" values="0 0 0 0 0.682353 0 0 0 0 0.67451 0 0 0 0 0.670588 0 0 0 1 0"/>
<feBlend mode="normal" in2="BackgroundImageFix" result="effect1_dropShadow_108_1625"/>
<feColorMatrix in="SourceAlpha" type="matrix" values="0 0 0 0 0 0 0 0 0 0 0 0 0 0 0 0 0 0 127 0" result="hardAlpha"/>
<feOffset dy="-1"/>
<feComposite in2="hardAlpha" operator="out"/>
<feColorMatrix type="matrix" values="0 0 0 0 0.682353 0 0 0 0 0.67451 0 0 0 0 0.670588 0 0 0 1 0"/>
<feBlend mode="normal" in2="effect1_dropShadow_108_1625" result="effect2_dropShadow_108_1625"/>
<feBlend mode="normal" in="SourceGraphic" in2="effect2_dropShadow_108_1625" result="shape"/>
</filter>
</defs>
</svg>
