<svg width="13" height="13" viewBox="0 0 13 13" fill="none" xmlns="http://www.w3.org/2000/svg">
<path d="M4.21944 4.33337L8.78027 4.33337C8.96033 4.33311 9.13678 4.38384 9.2892 4.4797C9.44162 4.57556 9.56377 4.71263 9.64152 4.87503C9.73254 5.06773 9.7676 5.28211 9.7427 5.49376C9.7178 5.70541 9.63394 5.90581 9.50069 6.07212L7.22027 8.83462C7.13078 8.93787 7.02014 9.02069 6.89584 9.07744C6.77154 9.1342 6.6365 9.16357 6.49986 9.16357C6.36321 9.16357 6.22817 9.1342 6.10387 9.07744C5.97957 9.02069 5.86893 8.93787 5.77944 8.83462L3.49902 6.07212C3.36577 5.90581 3.28191 5.70541 3.25701 5.49376C3.23211 5.28211 3.26717 5.06773 3.35819 4.87503C3.43594 4.71263 3.5581 4.57556 3.71051 4.4797C3.86293 4.38384 4.03938 4.33311 4.21944 4.33337Z" fill="#525252"/>
</svg>
