<svg width="47" height="19" viewBox="0 0 47 19" fill="none" xmlns="http://www.w3.org/2000/svg">
<rect width="47" height="19" rx="4" fill="#2A2D82"/>
<g clip-path="url(#clip0_78_774)">
<path d="M9 9.50019C9 9.75958 8.89464 10.0083 8.70711 10.1918C8.51957 10.3752 8.26522 10.4782 8 10.4782C7.73478 10.4782 7.48043 10.3752 7.29289 10.1918C7.10536 10.0083 7 9.75958 7 9.50019C7 9.24079 7.10536 8.99203 7.29289 8.80861C7.48043 8.62519 7.73478 8.52215 8 8.52215C8.26522 8.52215 8.51957 8.62519 8.70711 8.80861C8.89464 8.99203 9 9.24079 9 9.50019ZM9 5.97804C9 6.23743 8.89464 6.4862 8.70711 6.66962C8.51957 6.85304 8.26522 6.95608 8 6.95608C7.73478 6.95608 7.48043 6.85304 7.29289 6.66962C7.10536 6.4862 7 6.23743 7 5.97804C7 5.71865 7.10536 5.46988 7.29289 5.28646C7.48043 5.10304 7.73478 5 8 5C8.26522 5 8.51957 5.10304 8.70711 5.28646C8.89464 5.46988 9 5.71865 9 5.97804ZM9 13.022C9 13.2814 8.89464 13.5301 8.70711 13.7135C8.51957 13.897 8.26522 14 8 14C7.73478 14 7.48043 13.897 7.29289 13.7135C7.10536 13.5301 7 13.2814 7 13.022C7 12.7626 7.10536 12.5138 7.29289 12.3304C7.48043 12.147 7.73478 12.0439 8 12.0439C8.26522 12.0439 8.51957 12.147 8.70711 12.3304C8.89464 12.5138 9 12.7626 9 13.022Z" fill="white"/>
</g>
<path d="M16.7926 6.45455H17.7386L19.9631 11.8878H20.0398L22.2642 6.45455H23.2102V13H22.4688V8.02699H22.4048L20.3594 13H19.6435L17.598 8.02699H17.5341V13H16.7926V6.45455ZM26.6915 13.1023C26.2483 13.1023 25.8595 12.9968 25.5249 12.7859C25.1926 12.5749 24.9326 12.2798 24.7451 11.9006C24.5597 11.5213 24.4671 11.0781 24.4671 10.571C24.4671 10.0597 24.5597 9.61328 24.7451 9.23189C24.9326 8.8505 25.1926 8.55433 25.5249 8.34339C25.8595 8.13246 26.2483 8.02699 26.6915 8.02699C27.1347 8.02699 27.5225 8.13246 27.8548 8.34339C28.1894 8.55433 28.4493 8.8505 28.6347 9.23189C28.8222 9.61328 28.9159 10.0597 28.9159 10.571C28.9159 11.0781 28.8222 11.5213 28.6347 11.9006C28.4493 12.2798 28.1894 12.5749 27.8548 12.7859C27.5225 12.9968 27.1347 13.1023 26.6915 13.1023ZM26.6915 12.4247C27.0281 12.4247 27.3051 12.3384 27.5225 12.1658C27.7398 11.9933 27.9007 11.7663 28.0051 11.4851C28.1095 11.2038 28.1617 10.8991 28.1617 10.571C28.1617 10.2429 28.1095 9.93714 28.0051 9.65376C27.9007 9.37038 27.7398 9.14134 27.5225 8.96662C27.3051 8.7919 27.0281 8.70455 26.6915 8.70455C26.3548 8.70455 26.0779 8.7919 25.8605 8.96662C25.6432 9.14134 25.4823 9.37038 25.3779 9.65376C25.2735 9.93714 25.2213 10.2429 25.2213 10.571C25.2213 10.8991 25.2735 11.2038 25.3779 11.4851C25.4823 11.7663 25.6432 11.9933 25.8605 12.1658C26.0779 12.3384 26.3548 12.4247 26.6915 12.4247ZM30.0673 13V8.09091H30.796V8.83239H30.8471C30.9366 8.58949 31.0985 8.3924 31.3329 8.24112C31.5673 8.08984 31.8315 8.0142 32.1255 8.0142C32.1809 8.0142 32.2502 8.01527 32.3333 8.0174C32.4164 8.01953 32.4792 8.02273 32.5218 8.02699V8.79403C32.4963 8.78764 32.4377 8.77805 32.3461 8.76527C32.2566 8.75035 32.1618 8.7429 32.0616 8.7429C31.823 8.7429 31.6099 8.79297 31.4224 8.89311C31.237 8.99112 31.09 9.12749 30.9814 9.3022C30.8748 9.47479 30.8216 9.67187 30.8216 9.89347V13H30.0673ZM35.3248 13.1023C34.8517 13.1023 34.4437 12.9979 34.1007 12.7891C33.7598 12.5781 33.4966 12.2841 33.3113 11.907C33.128 11.5277 33.0364 11.0866 33.0364 10.5838C33.0364 10.081 33.128 9.63778 33.3113 9.25426C33.4966 8.86861 33.7544 8.56818 34.0847 8.35298C34.4171 8.13565 34.8049 8.02699 35.248 8.02699C35.5037 8.02699 35.7562 8.0696 36.0055 8.15483C36.2548 8.24006 36.4817 8.37855 36.6863 8.57031C36.8908 8.75994 37.0538 9.01136 37.1752 9.32457C37.2967 9.63778 37.3574 10.0234 37.3574 10.4815V10.8011H33.5733V10.1491H36.5904C36.5904 9.87216 36.535 9.625 36.4242 9.40767C36.3155 9.19034 36.16 9.01882 35.9576 8.89311C35.7573 8.7674 35.5208 8.70455 35.248 8.70455C34.9476 8.70455 34.6877 8.77912 34.4682 8.92827C34.2509 9.07528 34.0836 9.26705 33.9664 9.50355C33.8493 9.74006 33.7907 9.99361 33.7907 10.2642V10.6989C33.7907 11.0696 33.8546 11.3839 33.9824 11.6417C34.1124 11.8974 34.2924 12.0923 34.5225 12.2266C34.7527 12.3587 35.0201 12.4247 35.3248 12.4247C35.5229 12.4247 35.7019 12.397 35.8617 12.3416C36.0236 12.2841 36.1632 12.1989 36.2804 12.0859C36.3975 11.9709 36.4881 11.8281 36.552 11.6577L37.2807 11.8622C37.204 12.1094 37.0751 12.3267 36.894 12.5142C36.7129 12.6996 36.4892 12.8445 36.2228 12.9489C35.9565 13.0511 35.6571 13.1023 35.3248 13.1023Z" fill="white"/>
<defs>
<clipPath id="clip0_78_774">
<rect width="2" height="9" fill="white" transform="translate(7 5)"/>
</clipPath>
</defs>
</svg>
