<svg width="14" height="14" viewBox="0 0 14 14" fill="none" xmlns="http://www.w3.org/2000/svg">
<path d="M12.9726 2.26465H1.02744C0.460906 2.26465 0 2.72555 0 3.29209V10.708C0 11.2745 0.460906 11.7354 1.02744 11.7354H12.9725C13.5391 11.7354 14 11.2745 14 10.708V3.29209C14 2.72555 13.5391 2.26465 12.9726 2.26465ZM4.30653 8.43118H5.69436C5.86089 8.43118 5.99583 8.56615 5.99583 8.73265C5.99583 8.89915 5.86086 9.03411 5.69436 9.03411H4.30653C4.14001 9.03411 4.00507 8.89915 4.00507 8.73265C4.00507 8.56615 4.14004 8.43118 4.30653 8.43118ZM1.30375 5.40732C1.30375 5.2408 1.43872 5.10586 1.60521 5.10586H3.41121C3.57774 5.10586 3.71268 5.24082 3.71268 5.40732V6.71307C3.71268 6.87959 3.57771 7.01453 3.41121 7.01453H1.60521C1.43869 7.01453 1.30375 6.87956 1.30375 6.71307V5.40732ZM1.60521 8.43118H2.99305C3.15957 8.43118 3.29451 8.56615 3.29451 8.73265C3.29451 8.89915 3.15954 9.03411 2.99305 9.03411H1.60521C1.43869 9.03411 1.30375 8.89915 1.30375 8.73265C1.30375 8.56615 1.43875 8.43118 1.60521 8.43118ZM6.55977 10.3747H1.60521C1.43869 10.3747 1.30375 10.2397 1.30375 10.0732C1.30375 9.90673 1.43872 9.77177 1.60521 9.77177H6.55977C6.72629 9.77177 6.86123 9.90673 6.86123 10.0732C6.86123 10.2397 6.72629 10.3747 6.55977 10.3747ZM8.39568 9.03411H7.00785C6.84132 9.03411 6.70638 8.89915 6.70638 8.73265C6.70638 8.56615 6.84135 8.43118 7.00785 8.43118H8.39568C8.5622 8.43118 8.69714 8.56615 8.69714 8.73265C8.69714 8.89915 8.5622 9.03411 8.39568 9.03411ZM11.097 9.03411H9.70916C9.54264 9.03411 9.4077 8.89915 9.4077 8.73265C9.4077 8.56615 9.54267 8.43118 9.70916 8.43118H11.097C11.2635 8.43118 11.3985 8.56615 11.3985 8.73265C11.3985 8.89915 11.2635 9.03411 11.097 9.03411ZM12.3948 4.63024H9.12149C8.95497 4.63024 8.82003 4.49527 8.82003 4.32877C8.82003 4.16228 8.955 4.02731 9.12149 4.02731H12.3948C12.5613 4.02731 12.6962 4.16228 12.6962 4.32877C12.6962 4.49527 12.5613 4.63024 12.3948 4.63024Z" fill="#525252"/>
</svg>
