<svg width="27" height="27" viewBox="0 0 27 27" fill="none" xmlns="http://www.w3.org/2000/svg">
<path d="M18.5625 12.375H8.4375C8.13913 12.375 7.85298 12.2565 7.64201 12.0455C7.43103 11.8345 7.3125 11.5484 7.3125 11.25V7.3125C7.3125 5.67147 7.9644 4.09766 9.12478 2.93728C10.2852 1.7769 11.859 1.125 13.5 1.125C15.141 1.125 16.7148 1.7769 17.8752 2.93728C19.0356 4.09766 19.6875 5.67147 19.6875 7.3125V11.25C19.6875 11.5484 19.569 11.8345 19.358 12.0455C19.147 12.2565 18.8609 12.375 18.5625 12.375ZM9.5625 10.125H17.4375V7.3125C17.4375 6.26821 17.0227 5.26669 16.2842 4.52827C15.5458 3.78984 14.5443 3.375 13.5 3.375C12.4557 3.375 11.4542 3.78984 10.7158 4.52827C9.97734 5.26669 9.5625 6.26821 9.5625 7.3125V10.125Z" fill="#A4A4A4"/>
<path d="M19.125 10.125H7.875C6.68189 10.1262 5.53799 10.6007 4.69434 11.4443C3.85068 12.288 3.37619 13.4319 3.375 14.625V21.375C3.37619 22.5681 3.85068 23.712 4.69434 24.5557C5.53799 25.3993 6.68189 25.8738 7.875 25.875H19.125C20.3181 25.8738 21.462 25.3993 22.3057 24.5557C23.1493 23.712 23.6238 22.5681 23.625 21.375V14.625C23.6238 13.4319 23.1493 12.288 22.3057 11.4443C21.462 10.6007 20.3181 10.1262 19.125 10.125ZM13.5 19.125C13.055 19.125 12.62 18.993 12.25 18.7458C11.88 18.4986 11.5916 18.1472 11.4213 17.736C11.251 17.3249 11.2064 16.8725 11.2932 16.436C11.38 15.9996 11.5943 15.5987 11.909 15.284C12.2237 14.9693 12.6246 14.7551 13.061 14.6682C13.4975 14.5814 13.9499 14.626 14.361 14.7963C14.7722 14.9666 15.1236 15.255 15.3708 15.625C15.618 15.995 15.75 16.43 15.75 16.875C15.75 17.4717 15.5129 18.044 15.091 18.466C14.669 18.8879 14.0967 19.125 13.5 19.125Z" fill="#A4A4A4"/>
</svg>
