<svg width="13" height="14" viewBox="0 0 13 14" fill="none" xmlns="http://www.w3.org/2000/svg">
<path d="M9.39552 10.5669C9.59659 10.8972 9.65687 11.2854 9.56525 11.661C9.52078 11.8458 9.44009 12.02 9.32785 12.1735C9.21562 12.3269 9.07407 12.4566 8.9114 12.555L7.71363 13.2841C7.48838 13.4215 7.22962 13.4942 6.96575 13.4943C6.73237 13.4943 6.49706 13.4379 6.27863 13.3241C3.76351 12.0198 2.32754 10.0828 1.69539 9.04463C0.294619 6.74361 0.000482192 4.47634 0 2.9801C0 2.47572 0.25942 2.01571 0.694357 1.75051L1.89261 1.02143C2.05463 0.922069 2.23479 0.855896 2.42262 0.826759C2.61044 0.797621 2.80218 0.806099 2.9867 0.8517C3.36185 0.942835 3.67961 1.17477 3.8802 1.50507L4.63242 2.74045C4.83146 3.06834 4.89232 3.46178 4.80166 3.83448C4.71099 4.20719 4.4762 4.52871 4.14878 4.72853L3.5282 5.10608C3.34208 5.2194 3.25142 5.44699 3.31363 5.64662C3.7258 6.9784 4.46134 8.18739 5.45456 9.16566C5.53087 9.23901 5.62951 9.28473 5.73479 9.29556C5.84007 9.3064 5.94596 9.28172 6.0356 9.22545L6.6557 8.8479C6.9835 8.64869 7.37694 8.58768 7.74968 8.67826C8.12241 8.76885 8.44397 9.00362 8.64378 9.33105L9.396 10.5669H9.39552ZM6.54287 4.77096C7.0481 4.8496 7.50152 5.12538 7.8037 5.53785C8.10588 5.95031 8.23216 6.46577 8.15484 6.9712C8.14518 7.0338 8.14795 7.09768 8.16298 7.15921C8.17801 7.22073 8.20502 7.27869 8.24245 7.32978C8.27988 7.38087 8.32701 7.42409 8.38114 7.45696C8.43528 7.48984 8.49536 7.51173 8.55795 7.52139C8.62054 7.53104 8.68443 7.52828 8.74595 7.51324C8.80748 7.49821 8.86544 7.47121 8.91653 7.43378C8.96762 7.39634 9.01083 7.34921 9.04371 7.29508C9.07658 7.24095 9.09848 7.18087 9.10813 7.11827C9.22425 6.36012 9.03493 5.58685 8.58169 4.9681C8.12845 4.34934 7.44829 3.93561 6.69042 3.81767C6.5654 3.801 6.43884 3.83399 6.33785 3.90954C6.23687 3.98509 6.16951 4.09721 6.15021 4.22184C6.13091 4.34647 6.1612 4.47371 6.23461 4.57627C6.30801 4.67883 6.41867 4.74855 6.54287 4.77048V4.77096ZM6.98407 1.91156C6.86021 1.89751 6.73571 1.93193 6.63665 2.00761C6.53759 2.08329 6.47165 2.19436 6.45265 2.31756C6.43364 2.44077 6.46304 2.56655 6.53468 2.66856C6.60633 2.77058 6.71466 2.84092 6.83701 2.86485C7.8554 3.02205 8.75131 3.56644 9.36032 4.39774C9.96933 5.22904 10.2181 6.24743 10.0609 7.26582C10.0469 7.38969 10.0813 7.51419 10.157 7.61325C10.2327 7.71231 10.3437 7.77825 10.4669 7.79725C10.5902 7.81626 10.7159 7.78686 10.8179 7.71522C10.92 7.64357 10.9903 7.53523 11.0142 7.41289C11.211 6.1399 10.9 4.86692 10.1386 3.82779C9.3772 2.78867 8.25706 2.10829 6.98407 1.91156ZM7.27821 0.00545253C7.15185 -0.0136804 7.02305 0.0179789 6.91996 0.0935126C6.81687 0.169046 6.74787 0.282314 6.72803 0.408565C6.68753 0.67136 6.86787 0.917761 7.13114 0.958747C10.2842 1.44528 12.4536 4.40642 11.9671 7.55996C11.953 7.68383 11.9874 7.80833 12.0631 7.90739C12.1388 8.00645 12.2499 8.07238 12.3731 8.09139C12.4963 8.1104 12.622 8.081 12.7241 8.00935C12.8261 7.93771 12.8964 7.82937 12.9203 7.70703C13.4884 4.02838 10.9573 0.573957 7.27821 0.0059348V0.00545253Z" fill="#525252"/>
</svg>
