<svg width="17" height="17" viewBox="0 0 17 17" fill="none" xmlns="http://www.w3.org/2000/svg">
<path d="M12.7502 5.1355H11.8647V4.25008C11.8647 2.39425 10.356 0.885498 8.50016 0.885498C6.64433 0.885498 5.13558 2.39425 5.13558 4.25008V5.1355H4.25016C3.1735 5.1355 2.30225 6.00675 2.30225 7.08342V14.1667C2.30225 15.2434 3.1735 16.1147 4.25016 16.1147H12.7502C13.8268 16.1147 14.6981 15.2434 14.6981 14.1667V7.08342C14.6981 6.00675 13.8268 5.1355 12.7502 5.1355ZM6.19808 4.25008C6.19808 2.98216 7.23225 1.948 8.50016 1.948C9.76808 1.948 10.8022 2.98216 10.8022 4.25008V5.1355H6.19808V4.25008ZM7.3385 12.0205C7.54391 12.2259 7.54391 12.5659 7.3385 12.7713C7.23225 12.8776 7.09766 12.9272 6.96308 12.9272C6.8285 12.9272 6.69391 12.8776 6.58766 12.7713L4.81683 11.0005C4.71803 10.9005 4.66262 10.7656 4.66262 10.6251C4.66262 10.4845 4.71803 10.3496 4.81683 10.2497L6.58766 8.47883C6.79308 8.27342 7.13308 8.27342 7.3385 8.47883C7.54391 8.68425 7.54391 9.02425 7.3385 9.22966L5.94308 10.6251L7.3385 12.0205ZM12.1764 11.0005L10.4056 12.7713C10.2993 12.8776 10.1647 12.9272 10.0302 12.9272C9.89558 12.9272 9.761 12.8776 9.65475 12.7713C9.55595 12.6714 9.50054 12.5365 9.50054 12.3959C9.50054 12.2554 9.55595 12.1205 9.65475 12.0205L11.0502 10.6251L9.65475 9.22966C9.44933 9.02425 9.44933 8.68425 9.65475 8.47883C9.86016 8.27342 10.2002 8.27342 10.4056 8.47883L12.1764 10.2497C12.3818 10.4551 12.3818 10.7951 12.1764 11.0005Z" fill="#525252"/>
</svg>
