<svg width="27" height="27" viewBox="0 0 27 27" fill="none" xmlns="http://www.w3.org/2000/svg">
<path fill-rule="evenodd" clip-rule="evenodd" d="M0 22.95V4.05C0 2.97587 0.609565 1.94574 1.6946 1.18622C2.77963 0.426695 4.25125 0 5.78571 0H21.2143C22.7488 0 24.2204 0.426695 25.3054 1.18622C26.3904 1.94574 27 2.97587 27 4.05V22.95C27 24.0241 26.3904 25.0543 25.3054 25.8138C24.2204 26.5733 22.7488 27 21.2143 27H5.78571C4.25125 27 2.77963 26.5733 1.6946 25.8138C0.609565 25.0543 0 24.0241 0 22.95ZM23.1429 22.95C23.1429 22.592 22.9397 22.2486 22.578 21.9954C22.2163 21.7422 21.7258 21.6 21.2143 21.6H5.78571C5.27423 21.6 4.78369 21.7422 4.42201 21.9954C4.06033 22.2486 3.85714 22.592 3.85714 22.95C3.85714 23.308 4.06033 23.6514 4.42201 23.9046C4.78369 24.1578 5.27423 24.3 5.78571 24.3H21.2143C21.7258 24.3 22.2163 24.1578 22.578 23.9046C22.9397 23.6514 23.1429 23.308 23.1429 22.95ZM13.7526 12.15H9.64286C9.2937 12.15 8.95108 12.0837 8.65155 11.9581C8.35202 11.8325 8.10682 11.6524 7.9421 11.4369C7.77738 11.2214 7.69933 10.9786 7.71627 10.7345C7.73321 10.4904 7.84451 10.2541 8.03829 10.0507L11.8954 6.00075C12.1793 5.70286 12.6206 5.49611 13.1223 5.42598C13.6239 5.35585 14.1448 5.42809 14.5704 5.6268C14.9959 5.82551 15.2913 6.13443 15.3915 6.48558C15.4916 6.83673 15.3884 7.20136 15.1046 7.49925L13.2474 9.45H17.3571C17.7063 9.44996 18.0489 9.51628 18.3484 9.64187C18.648 9.76746 18.8932 9.94762 19.0579 10.1631C19.2226 10.3786 19.3007 10.6214 19.2837 10.8655C19.2668 11.1096 19.1555 11.3459 18.9617 11.5493L15.1046 15.5993C14.8207 15.8971 14.3794 16.1039 13.8777 16.174C13.3761 16.2442 12.8552 16.1719 12.4296 15.9732C12.0041 15.7745 11.7087 15.4656 11.6085 15.1144C11.5084 14.7633 11.6116 14.3986 11.8954 14.1007L13.7526 12.15Z" fill="white"/>
</svg>
