<svg width="27" height="27" viewBox="0 0 27 27" fill="none" xmlns="http://www.w3.org/2000/svg">
<path d="M7.53896 10.6731H11.9221V27H7.53896V10.6731ZM15.0779 14.1346H19.461V27H15.0779V14.1346ZM22.6169 8.01923H27V27H22.6169V8.01923ZM0 16.8461H4.38312V27H0V16.8461Z" fill="white"/>
<path d="M24.6576 0C23.432 0 22.4384 0.980135 22.4384 2.18919C22.4384 2.47217 22.4934 2.74235 22.5926 2.9906L18.3156 6.58731C17.9916 6.41419 17.6288 6.32379 17.2603 6.32435C16.6261 6.32435 16.0544 6.58725 15.65 7.00812L11.9579 5.51538C11.9582 5.50125 11.959 5.48723 11.959 5.47298C11.959 4.26392 10.9654 3.28379 9.7398 3.28379C8.51416 3.28379 7.52065 4.26392 7.52065 5.47298C7.52065 5.59535 7.53129 5.71517 7.55087 5.83206L3.71506 8.07092C3.32424 7.76622 2.84062 7.60076 2.34261 7.60137C1.11698 7.60137 0.123413 8.5815 0.123413 9.79056C0.123413 10.9996 1.11698 11.9798 2.34261 11.9798C3.56825 11.9798 4.56176 10.9996 4.56176 9.79056C4.56165 9.67025 4.55155 9.55016 4.53154 9.43148L8.36735 7.19262C8.75819 7.49733 9.24183 7.66279 9.73985 7.66217C10.3741 7.66217 10.9458 7.39927 11.3502 6.9784L15.0423 8.47114C15.042 8.48527 15.0412 8.49929 15.0412 8.51348C15.0412 9.72254 16.0348 10.7027 17.2604 10.7027C18.486 10.7027 19.4796 9.72254 19.4796 8.51348C19.4796 8.26015 19.4354 8.0171 19.3552 7.79077L23.6793 4.15431C23.9837 4.30209 24.3185 4.37876 24.6576 4.37838C25.8833 4.37838 26.8769 3.39825 26.8769 2.18919C26.8769 0.980135 25.8832 0 24.6576 0Z" fill="white"/>
</svg>
