<svg width="11" height="11" viewBox="0 0 11 11" fill="none" xmlns="http://www.w3.org/2000/svg">
<circle cx="5.5" cy="5.5" r="5.5" fill="#51CA6B"/>
<path d="M4.37505 7.06375L3.0738 5.7625C3.00369 5.69238 2.90859 5.65299 2.80943 5.65299C2.71027 5.65299 2.61517 5.69238 2.54505 5.7625C2.47494 5.83261 2.43555 5.92771 2.43555 6.02687C2.43555 6.07597 2.44522 6.12459 2.46401 6.16995C2.4828 6.21531 2.51034 6.25653 2.54505 6.29125L4.11255 7.85875C4.2588 8.005 4.49505 8.005 4.6413 7.85875L8.6088 3.89125C8.67892 3.82113 8.71831 3.72603 8.71831 3.62687C8.71831 3.52771 8.67892 3.43262 8.6088 3.3625C8.53869 3.29238 8.44359 3.25299 8.34443 3.25299C8.24527 3.25299 8.15017 3.29238 8.08005 3.3625L4.37505 7.06375Z" fill="white"/>
</svg>
