<svg width="27" height="27" viewBox="0 0 27 27" fill="none" xmlns="http://www.w3.org/2000/svg">
<path d="M26.7877 22.0743C26.006 20.2761 22.8904 19.1505 20.6691 18.396C19.7989 18.1014 17.3897 17.6016 17.1001 16.7547C16.9965 16.4496 17.0105 16.1619 17.0955 15.8862C16.9603 15.9067 16.8229 15.9173 16.6852 15.9177H15.2378C14.6825 15.9172 14.1501 15.7465 13.7574 15.4429C13.3648 15.1394 13.144 14.7278 13.1434 14.2986C13.1434 13.4067 14.0827 12.6816 15.2378 12.6816H16.6852C17.1634 12.6816 17.6167 12.8067 17.9824 13.0299C18.5026 12.9769 19.0161 12.89 19.5175 12.7701C20.1505 11.745 20.6442 10.5192 20.7548 9.4641C21.2272 4.9497 17.6466 2.3085 12.5127 2.7651C8.77998 3.0972 6.55013 5.2485 6.30909 8.0181C6.06534 10.8411 7.41956 12.9261 8.858 14.4555C9.48795 15.1242 10.1497 15.5541 10.048 16.3599C9.93004 17.3127 8.61192 17.5782 7.66913 17.871C6.55207 18.2178 5.34884 18.744 4.7806 18.9873C2.82322 19.8228 0.67487 20.829 0.192026 22.2054C-0.877296 25.2558 2.73395 26.1798 5.71524 26.6064C8.27385 26.9712 11.1589 27 13.532 27C17.8244 27 25.5429 26.8671 26.7877 24.3732C27.1417 23.6655 26.9899 22.5378 26.7877 22.0743Z" fill="white"/>
<path d="M17.6012 13.8429C17.5021 13.725 17.3665 13.628 17.2067 13.5608C17.0469 13.4936 16.8679 13.4583 16.686 13.458H15.2386C15.093 13.455 14.9481 13.4746 14.8124 13.5156C14.6767 13.5566 14.553 13.6182 14.4487 13.6967C14.3443 13.7753 14.2613 13.8692 14.2047 13.9729C14.1481 14.0766 14.1189 14.1881 14.1189 14.3007C14.1189 14.4133 14.1481 14.5248 14.2047 14.6285C14.2613 14.7322 14.3443 14.8261 14.4487 14.9047C14.553 14.9832 14.6767 15.0448 14.8124 15.0858C14.9481 15.1268 15.093 15.1464 15.2386 15.1434H16.686C16.8851 15.1433 17.0803 15.1007 17.2501 15.0203C17.4199 14.9398 17.5576 14.8248 17.6482 14.6877C19.6661 14.565 21.4213 14.0886 22.6532 13.3851C22.9362 13.5261 23.2708 13.6086 23.6317 13.6086H23.7226C23.9617 13.6086 24.1985 13.5722 24.4194 13.5015C24.6403 13.4307 24.841 13.327 25.01 13.1962C25.179 13.0655 25.313 12.9102 25.4043 12.7394C25.4956 12.5686 25.5425 12.3855 25.5422 12.2007V9.3903C25.5422 9.12486 25.4448 8.86485 25.2612 8.64052C25.0776 8.4162 24.8154 8.23676 24.5051 8.1231C24.238 3.6102 19.4045 0 13.5002 0C7.59579 0 2.76152 3.6102 2.49565 8.1231C2.18507 8.23659 1.9226 8.41597 1.73885 8.64032C1.5551 8.86467 1.45761 9.12477 1.45777 9.3903V12.2007C1.45746 12.3854 1.50425 12.5684 1.59546 12.7391C1.68668 12.9099 1.82053 13.0651 1.98936 13.1958C2.1582 13.3266 2.35871 13.4303 2.57945 13.5011C2.80018 13.572 3.03681 13.6085 3.27581 13.6086H3.3678C3.60688 13.6086 3.84361 13.5721 4.06445 13.5013C4.2853 13.4305 4.48593 13.3268 4.65488 13.196C4.82383 13.0653 4.95778 12.9101 5.04909 12.7393C5.14039 12.5685 5.18726 12.3855 5.187 12.2007V9.3903C5.18682 9.12857 5.09193 8.87209 4.91305 8.64985C4.73417 8.42762 4.47843 8.24849 4.17474 8.1327C4.4344 4.3302 8.51684 1.2993 13.5002 1.2993C18.4815 1.2993 22.5659 4.3302 22.8244 8.1327C22.521 8.2487 22.2656 8.4279 22.0869 8.65011C21.9083 8.87232 21.8135 9.12868 21.8133 9.3903V12.2007C21.8133 12.3873 21.8603 12.561 21.9429 12.7233C20.8826 13.3098 19.3389 13.7277 17.6012 13.8429Z" fill="white"/>
</svg>
