<svg width="27" height="27" viewBox="0 0 27 27" fill="none" xmlns="http://www.w3.org/2000/svg">
<g clip-path="url(#clip0_108_1658)">
<path d="M13.5019 14.0204C17.359 14.0204 20.5121 10.8674 20.5121 7.01021C20.5121 3.15305 17.359 0 13.5019 0C9.6447 0 6.49171 3.15305 6.49171 7.01021C6.49171 10.8674 9.64476 14.0204 13.5019 14.0204ZM25.5325 19.6225C25.3488 19.1633 25.104 18.7347 24.8285 18.3367C23.4203 16.2551 21.2468 14.8775 18.7979 14.5408C18.4918 14.5102 18.155 14.5714 17.9101 14.7551C16.6244 15.7041 15.0938 16.1938 13.5019 16.1938C11.9101 16.1938 10.3795 15.7041 9.09374 14.7551C8.84882 14.5714 8.51208 14.4796 8.20599 14.5408C5.757 14.8775 3.55294 16.2551 2.1754 18.3367C1.89989 18.7347 1.65497 19.1939 1.47134 19.6225C1.37952 19.8062 1.41011 20.0204 1.50193 20.2041C1.74685 20.6327 2.05294 21.0613 2.32845 21.4286C2.757 22.0103 3.2162 22.5306 3.73663 23.0204C4.16519 23.449 4.65497 23.847 5.14482 24.2449C7.56316 26.0511 10.4713 27 13.4713 27C16.4713 27 19.3795 26.051 21.7979 24.2449C22.2876 23.8776 22.7774 23.449 23.206 23.0204C23.6958 22.5306 24.1856 22.0102 24.6142 21.4286C24.9203 21.0306 25.1959 20.6327 25.4408 20.2041C25.5937 20.0204 25.6243 19.8061 25.5325 19.6225Z" fill="#A4A4A4"/>
</g>
<defs>
<clipPath id="clip0_108_1658">
<rect width="27" height="27" fill="white"/>
</clipPath>
</defs>
</svg>
