<svg width="76" height="24" viewBox="0 0 76 24" fill="none" xmlns="http://www.w3.org/2000/svg">
<path d="M27.8667 22.4381L31.727 0.723816H37.7588L34.0191 22.4381H27.8667Z" fill="#3C58BF"/>
<path d="M27.8667 22.4381L32.8127 0.723816H37.7588L34.0191 22.4381H27.8667Z" fill="#293688"/>
<path d="M55.8539 0.965078C54.6475 0.482539 52.7174 0 50.3047 0C44.2729 0 39.9301 3.01587 39.9301 7.35873C39.9301 10.6159 42.9459 12.3048 45.3586 13.3905C47.7713 14.4762 48.4951 15.2 48.4951 16.1651C48.4951 17.6127 46.565 18.3365 44.8761 18.3365C42.4634 18.3365 41.1364 17.9746 39.0856 17.1302L38.2412 16.7682L37.3967 21.7143C38.8443 22.3175 41.4983 22.9206 44.2729 22.9206C50.6666 22.9206 54.8888 19.9048 54.8888 15.3206C54.8888 12.7873 53.3205 10.8571 49.7015 9.28889C47.5301 8.20317 46.2031 7.6 46.2031 6.51429C46.2031 5.54921 47.2888 4.58413 49.7015 4.58413C51.7523 4.58413 53.1999 4.94603 54.2856 5.42857L54.8888 5.66984L55.8539 0.965078Z" fill="#3C58BF"/>
<path d="M55.8539 0.965078C54.6475 0.482539 52.7174 0 50.3047 0C44.2729 0 41.0158 3.01587 41.0158 7.35873C41.0158 10.6159 42.9459 12.3048 45.3586 13.3905C47.7713 14.4762 48.4951 15.2 48.4951 16.1651C48.4951 17.6127 46.565 18.3365 44.8761 18.3365C42.4634 18.3365 41.1364 17.9746 39.0856 17.1302L38.2412 16.7682L37.3967 21.7143C38.8443 22.3175 41.4983 22.9206 44.2729 22.9206C50.6666 22.9206 54.8888 19.9048 54.8888 15.3206C54.8888 12.7873 53.3205 10.8571 49.7015 9.28889C47.5301 8.20317 46.2031 7.6 46.2031 6.51429C46.2031 5.54921 47.2888 4.58413 49.7015 4.58413C51.7523 4.58413 53.1999 4.94603 54.2856 5.42857L54.8888 5.66984L55.8539 0.965078Z" fill="#293688"/>
<path d="M66.2286 0.723816C64.7809 0.723816 63.6952 0.844452 63.0921 2.29207L54.0444 22.4381H60.5587L61.7651 18.8191H69.4857L70.2095 22.4381H76L70.9333 0.723816H66.2286ZM63.454 15.2C63.8159 14.1143 65.8667 8.80636 65.8667 8.80636C65.8667 8.80636 66.3492 7.47937 66.7111 6.63493L67.073 8.68572C67.073 8.68572 68.2794 14.1143 68.5206 15.3206H63.454V15.2Z" fill="#3C58BF"/>
<path d="M67.6762 0.723816C66.2286 0.723816 65.1428 0.844452 64.5397 2.29207L54.0444 22.4381H60.5587L61.7651 18.8191H69.4857L70.2095 22.4381H76L70.9333 0.723816H67.6762ZM63.454 15.2C63.9365 13.9937 65.8667 8.80636 65.8667 8.80636C65.8667 8.80636 66.3492 7.47937 66.7111 6.63493L67.073 8.68572C67.073 8.68572 68.2794 14.1143 68.5206 15.3206H63.454V15.2Z" fill="#293688"/>
<path d="M16.7683 15.9238L16.1651 12.7873C15.0794 9.16826 11.581 5.18731 7.7207 3.25715L13.1493 22.5587H19.6636L29.435 0.844452H22.9207L16.7683 15.9238Z" fill="#3C58BF"/>
<path d="M16.7683 15.9238L16.1651 12.7873C15.0794 9.16826 11.581 5.18731 7.7207 3.25715L13.1493 22.5587H19.6636L29.435 0.844452H24.1271L16.7683 15.9238Z" fill="#293688"/>
<path d="M0 0.723816L1.08571 0.965087C8.80635 2.77461 14.1143 7.35874 16.1651 12.7873L13.9937 2.53334C13.6317 1.08572 12.546 0.723816 11.219 0.723816H0Z" fill="#FFBC00"/>
<path d="M0 0.723816C7.72064 2.53334 14.1143 7.2381 16.1651 12.6667L14.1143 4.10159C13.7524 2.65398 12.546 1.80953 11.219 1.80953L0 0.723816Z" fill="#F7981D"/>
<path d="M0 0.723816C7.72064 2.53334 14.1143 7.2381 16.1651 12.6667L14.7175 7.96191C14.3556 6.51429 13.873 5.06667 12.1841 4.4635L0 0.723816Z" fill="#ED7C00"/>
<path d="M22.8 15.2L18.6985 11.0984L16.7683 15.6825L16.2858 12.6667C15.2 9.04762 11.7016 5.06666 7.84131 3.13651L13.2699 22.4381H19.7842L22.8 15.2ZM34.0191 22.4381L28.8318 17.1302L27.8667 22.4381H34.0191ZM47.8921 14.9587C48.3746 15.4413 48.6159 15.8032 48.4953 16.2857C48.4953 17.7333 46.5651 18.4571 44.8762 18.4571C42.4635 18.4571 41.1365 18.0952 39.0858 17.2508L38.2413 16.8889L37.3969 21.8349C38.8445 22.4381 41.4984 23.0413 44.273 23.0413C48.1334 23.0413 51.2699 21.9556 53.0794 20.0254L47.8921 14.9587ZM54.8889 22.4381H60.5588L61.7651 18.819H69.4857L70.2096 22.4381H76L73.9492 13.6317L66.7111 6.63492L67.073 8.56508C67.073 8.56508 68.2794 13.9936 68.5207 15.2H63.454C63.9365 13.9936 65.8667 8.80635 65.8667 8.80635C65.8667 8.80635 66.3492 7.47936 66.7111 6.63492" fill="#051244"/>
</svg>
